G75*
%MOIN*%
%OFA0B0*%
%FSLAX24Y24*%
%IPPOS*%
%LPD*%
%AMOC8*
5,1,8,0,0,1.08239X$1,22.5*
%
%ADD10C,0.0000*%
%ADD11C,0.0080*%
%ADD12R,0.0788X0.0178*%
%ADD13R,0.0788X0.0749*%
%ADD14R,0.0670X0.0867*%
%ADD15R,0.0473X0.0434*%
%ADD16C,0.0634*%
%ADD17R,0.0788X0.0670*%
%ADD18R,0.0434X0.0473*%
%ADD19R,0.0512X0.0257*%
%ADD20C,0.0740*%
%ADD21C,0.0217*%
%ADD22R,0.0473X0.0355*%
%ADD23C,0.0340*%
%ADD24R,0.0827X0.0512*%
%ADD25R,0.0355X0.0355*%
%ADD26R,0.0512X0.0158*%
D10*
X001680Y001485D02*
X001680Y011485D01*
X031180Y011485D01*
X031180Y001485D01*
X001680Y001485D01*
X030280Y005360D02*
X030282Y005384D01*
X030288Y005408D01*
X030297Y005430D01*
X030310Y005450D01*
X030326Y005468D01*
X030345Y005483D01*
X030366Y005496D01*
X030388Y005504D01*
X030412Y005509D01*
X030436Y005510D01*
X030460Y005507D01*
X030483Y005500D01*
X030505Y005490D01*
X030525Y005476D01*
X030542Y005459D01*
X030557Y005440D01*
X030568Y005419D01*
X030576Y005396D01*
X030580Y005372D01*
X030580Y005348D01*
X030576Y005324D01*
X030568Y005301D01*
X030557Y005280D01*
X030542Y005261D01*
X030525Y005244D01*
X030505Y005230D01*
X030483Y005220D01*
X030460Y005213D01*
X030436Y005210D01*
X030412Y005211D01*
X030388Y005216D01*
X030366Y005224D01*
X030345Y005237D01*
X030326Y005252D01*
X030310Y005270D01*
X030297Y005290D01*
X030288Y005312D01*
X030282Y005336D01*
X030280Y005360D01*
X030280Y007610D02*
X030282Y007634D01*
X030288Y007658D01*
X030297Y007680D01*
X030310Y007700D01*
X030326Y007718D01*
X030345Y007733D01*
X030366Y007746D01*
X030388Y007754D01*
X030412Y007759D01*
X030436Y007760D01*
X030460Y007757D01*
X030483Y007750D01*
X030505Y007740D01*
X030525Y007726D01*
X030542Y007709D01*
X030557Y007690D01*
X030568Y007669D01*
X030576Y007646D01*
X030580Y007622D01*
X030580Y007598D01*
X030576Y007574D01*
X030568Y007551D01*
X030557Y007530D01*
X030542Y007511D01*
X030525Y007494D01*
X030505Y007480D01*
X030483Y007470D01*
X030460Y007463D01*
X030436Y007460D01*
X030412Y007461D01*
X030388Y007466D01*
X030366Y007474D01*
X030345Y007487D01*
X030326Y007502D01*
X030310Y007520D01*
X030297Y007540D01*
X030288Y007562D01*
X030282Y007586D01*
X030280Y007610D01*
D11*
X026787Y006581D02*
X026787Y006300D01*
X026507Y006300D02*
X026507Y006581D01*
X026647Y006721D01*
X026787Y006581D01*
X026787Y006510D02*
X026507Y006510D01*
X026046Y006721D02*
X026046Y006300D01*
X026326Y006300D01*
X025866Y006300D02*
X025586Y006300D01*
X025586Y006721D01*
X025419Y006721D02*
X025279Y006721D01*
X025349Y006721D02*
X025349Y006300D01*
X025279Y006300D02*
X025419Y006300D01*
X025099Y006300D02*
X025099Y006721D01*
X025099Y006510D02*
X024818Y006510D01*
X024818Y006300D02*
X024818Y006721D01*
X024638Y006651D02*
X024568Y006721D01*
X024428Y006721D01*
X024358Y006651D01*
X024358Y006370D01*
X024428Y006300D01*
X024568Y006300D01*
X024638Y006370D01*
X024178Y006300D02*
X024178Y006721D01*
X023898Y006721D02*
X024178Y006300D01*
X023898Y006300D02*
X023898Y006721D01*
X023731Y006721D02*
X023591Y006721D01*
X023661Y006721D02*
X023661Y006300D01*
X023591Y006300D02*
X023731Y006300D01*
X023411Y006300D02*
X023411Y006721D01*
X023411Y006510D02*
X023130Y006510D01*
X023130Y006300D02*
X023130Y006721D01*
X022950Y006651D02*
X022880Y006721D01*
X022740Y006721D01*
X022670Y006651D01*
X022670Y006370D01*
X022740Y006300D01*
X022880Y006300D01*
X022950Y006370D01*
X013096Y005788D02*
X013096Y005718D01*
X012816Y005438D01*
X013096Y005438D01*
X012635Y005508D02*
X012565Y005438D01*
X012425Y005438D01*
X012355Y005508D01*
X012355Y005648D02*
X012495Y005718D01*
X012565Y005718D01*
X012635Y005648D01*
X012635Y005508D01*
X012355Y005648D02*
X012355Y005858D01*
X012635Y005858D01*
X012816Y005788D02*
X012886Y005858D01*
X013026Y005858D01*
X013096Y005788D01*
X012175Y005438D02*
X011895Y005438D01*
X012035Y005438D02*
X012035Y005858D01*
X011895Y005718D01*
X011434Y005858D02*
X011434Y005438D01*
X011715Y005438D01*
X011254Y005438D02*
X010974Y005438D01*
X011254Y005718D01*
X011254Y005788D01*
X011184Y005858D01*
X011044Y005858D01*
X010974Y005788D01*
X010794Y005788D02*
X010794Y005718D01*
X010724Y005648D01*
X010794Y005578D01*
X010794Y005508D01*
X010724Y005438D01*
X010584Y005438D01*
X010514Y005508D01*
X010334Y005438D02*
X010334Y005858D01*
X010193Y005718D01*
X010053Y005858D01*
X010053Y005438D01*
X009733Y005438D02*
X009733Y005858D01*
X009593Y005858D02*
X009873Y005858D01*
X009413Y005788D02*
X009343Y005858D01*
X009203Y005858D01*
X009133Y005788D01*
X009133Y005718D01*
X009203Y005648D01*
X009343Y005648D01*
X009413Y005578D01*
X009413Y005508D01*
X009343Y005438D01*
X009203Y005438D01*
X009133Y005508D01*
X010514Y005788D02*
X010584Y005858D01*
X010724Y005858D01*
X010794Y005788D01*
X010724Y005648D02*
X010654Y005648D01*
D12*
X003397Y005973D03*
X003397Y006229D03*
X003397Y006485D03*
X003397Y006741D03*
X003397Y006997D03*
D13*
X002255Y007981D03*
X002255Y004989D03*
D14*
X003259Y005265D03*
X003259Y007706D03*
D15*
X006345Y006610D03*
X007015Y006610D03*
X007015Y005860D03*
X006345Y005860D03*
X007470Y007760D03*
X008140Y007760D03*
X017670Y010423D03*
X018340Y010423D03*
X018345Y009673D03*
X019015Y009673D03*
X022496Y007816D03*
X023165Y007816D03*
X028170Y007610D03*
X028840Y007610D03*
X019965Y002885D03*
X019295Y002885D03*
X018240Y003235D03*
X017570Y003235D03*
D16*
X003180Y009092D03*
X002330Y009092D03*
X002330Y009879D03*
X003180Y009879D03*
D17*
X006730Y010035D03*
X008030Y010035D03*
X008030Y008835D03*
X006730Y008835D03*
X006330Y007610D03*
X005030Y007610D03*
D18*
X015555Y006820D03*
X015555Y006151D03*
X021430Y004995D03*
X021430Y004326D03*
X023080Y003720D03*
X023080Y003051D03*
X028555Y004151D03*
X028555Y004820D03*
D19*
X005617Y008511D03*
X004593Y008511D03*
X004593Y008885D03*
X004593Y009259D03*
X005617Y009259D03*
D20*
X005680Y010985D03*
X004680Y010985D03*
X003680Y010985D03*
X002680Y010985D03*
X006680Y010985D03*
X007668Y010985D03*
X008680Y010985D03*
X009680Y010985D03*
X010680Y010985D03*
X011680Y010985D03*
X012680Y010985D03*
X013680Y010985D03*
X014680Y010985D03*
X015680Y010985D03*
X019680Y010985D03*
X020680Y010985D03*
X021680Y010985D03*
X022680Y010985D03*
X023680Y010985D03*
X024680Y010985D03*
X025680Y010985D03*
X026680Y010985D03*
X027680Y010985D03*
X028680Y010985D03*
X029680Y010985D03*
X030680Y010985D03*
X030680Y001985D03*
X029680Y001985D03*
X028680Y001985D03*
X027680Y001985D03*
X026680Y001985D03*
X025680Y001985D03*
X024680Y001985D03*
X023680Y001985D03*
X022682Y001987D03*
X021680Y001985D03*
X020680Y001985D03*
X018680Y001985D03*
X017680Y001985D03*
X016680Y001985D03*
X015680Y001985D03*
X014680Y001985D03*
X013680Y001985D03*
X012680Y001985D03*
X011680Y001985D03*
X010680Y001985D03*
X009680Y001985D03*
X008680Y001985D03*
X007680Y001985D03*
X006680Y001985D03*
X005680Y001985D03*
X004680Y001985D03*
X003680Y001985D03*
X002680Y001985D03*
D21*
X030144Y004780D02*
X030716Y004780D01*
X030716Y004562D01*
X030144Y004562D01*
X030144Y004780D01*
X030144Y004778D02*
X030716Y004778D01*
X030716Y006158D02*
X030144Y006158D01*
X030716Y006158D02*
X030716Y005940D01*
X030144Y005940D01*
X030144Y006158D01*
X030144Y006156D02*
X030716Y006156D01*
X030716Y007030D02*
X030144Y007030D01*
X030716Y007030D02*
X030716Y006812D01*
X030144Y006812D01*
X030144Y007030D01*
X030144Y007028D02*
X030716Y007028D01*
X030716Y008408D02*
X030144Y008408D01*
X030716Y008408D02*
X030716Y008190D01*
X030144Y008190D01*
X030144Y008408D01*
X030144Y008406D02*
X030716Y008406D01*
D22*
X029741Y007610D03*
X029741Y005360D03*
D23*
X030430Y005360D03*
X030430Y007610D03*
D24*
X022178Y003708D03*
X020682Y003708D03*
X020682Y002763D03*
X022178Y002763D03*
D25*
X017975Y010985D03*
X017385Y010985D03*
D26*
G36*
X018295Y008866D02*
X017934Y009227D01*
X018045Y009338D01*
X018406Y008977D01*
X018295Y008866D01*
G37*
G36*
X018156Y008727D02*
X017795Y009088D01*
X017906Y009199D01*
X018267Y008838D01*
X018156Y008727D01*
G37*
G36*
X018017Y008588D02*
X017656Y008949D01*
X017767Y009060D01*
X018128Y008699D01*
X018017Y008588D01*
G37*
G36*
X017878Y008449D02*
X017517Y008810D01*
X017628Y008921D01*
X017989Y008560D01*
X017878Y008449D01*
G37*
G36*
X017739Y008310D02*
X017378Y008671D01*
X017489Y008782D01*
X017850Y008421D01*
X017739Y008310D01*
G37*
G36*
X017599Y008170D02*
X017238Y008531D01*
X017349Y008642D01*
X017710Y008281D01*
X017599Y008170D01*
G37*
G36*
X017460Y008031D02*
X017099Y008392D01*
X017210Y008503D01*
X017571Y008142D01*
X017460Y008031D01*
G37*
G36*
X017321Y007892D02*
X016960Y008253D01*
X017071Y008364D01*
X017432Y008003D01*
X017321Y007892D01*
G37*
G36*
X017182Y007753D02*
X016821Y008114D01*
X016932Y008225D01*
X017293Y007864D01*
X017182Y007753D01*
G37*
G36*
X017043Y007614D02*
X016682Y007975D01*
X016793Y008086D01*
X017154Y007725D01*
X017043Y007614D01*
G37*
G36*
X016903Y007474D02*
X016542Y007835D01*
X016653Y007946D01*
X017014Y007585D01*
X016903Y007474D01*
G37*
G36*
X016764Y007335D02*
X016403Y007696D01*
X016514Y007807D01*
X016875Y007446D01*
X016764Y007335D01*
G37*
G36*
X016625Y007196D02*
X016264Y007557D01*
X016375Y007668D01*
X016736Y007307D01*
X016625Y007196D01*
G37*
G36*
X016486Y007057D02*
X016125Y007418D01*
X016236Y007529D01*
X016597Y007168D01*
X016486Y007057D01*
G37*
G36*
X016347Y006918D02*
X015986Y007279D01*
X016097Y007390D01*
X016458Y007029D01*
X016347Y006918D01*
G37*
G36*
X016207Y006778D02*
X015846Y007139D01*
X015957Y007250D01*
X016318Y006889D01*
X016207Y006778D01*
G37*
G36*
X016318Y006026D02*
X015957Y005665D01*
X015846Y005776D01*
X016207Y006137D01*
X016318Y006026D01*
G37*
G36*
X016458Y005887D02*
X016097Y005526D01*
X015986Y005637D01*
X016347Y005998D01*
X016458Y005887D01*
G37*
G36*
X016597Y005748D02*
X016236Y005387D01*
X016125Y005498D01*
X016486Y005859D01*
X016597Y005748D01*
G37*
G36*
X016736Y005608D02*
X016375Y005247D01*
X016264Y005358D01*
X016625Y005719D01*
X016736Y005608D01*
G37*
G36*
X016875Y005469D02*
X016514Y005108D01*
X016403Y005219D01*
X016764Y005580D01*
X016875Y005469D01*
G37*
G36*
X017014Y005330D02*
X016653Y004969D01*
X016542Y005080D01*
X016903Y005441D01*
X017014Y005330D01*
G37*
G36*
X017154Y005191D02*
X016793Y004830D01*
X016682Y004941D01*
X017043Y005302D01*
X017154Y005191D01*
G37*
G36*
X017293Y005052D02*
X016932Y004691D01*
X016821Y004802D01*
X017182Y005163D01*
X017293Y005052D01*
G37*
G36*
X017432Y004912D02*
X017071Y004551D01*
X016960Y004662D01*
X017321Y005023D01*
X017432Y004912D01*
G37*
G36*
X017571Y004773D02*
X017210Y004412D01*
X017099Y004523D01*
X017460Y004884D01*
X017571Y004773D01*
G37*
G36*
X017710Y004634D02*
X017349Y004273D01*
X017238Y004384D01*
X017599Y004745D01*
X017710Y004634D01*
G37*
G36*
X017850Y004495D02*
X017489Y004134D01*
X017378Y004245D01*
X017739Y004606D01*
X017850Y004495D01*
G37*
G36*
X017989Y004356D02*
X017628Y003995D01*
X017517Y004106D01*
X017878Y004467D01*
X017989Y004356D01*
G37*
G36*
X018128Y004216D02*
X017767Y003855D01*
X017656Y003966D01*
X018017Y004327D01*
X018128Y004216D01*
G37*
G36*
X018267Y004077D02*
X017906Y003716D01*
X017795Y003827D01*
X018156Y004188D01*
X018267Y004077D01*
G37*
G36*
X018406Y003938D02*
X018045Y003577D01*
X017934Y003688D01*
X018295Y004049D01*
X018406Y003938D01*
G37*
G36*
X019159Y004049D02*
X019520Y003688D01*
X019409Y003577D01*
X019048Y003938D01*
X019159Y004049D01*
G37*
G36*
X019298Y004188D02*
X019659Y003827D01*
X019548Y003716D01*
X019187Y004077D01*
X019298Y004188D01*
G37*
G36*
X019437Y004327D02*
X019798Y003966D01*
X019687Y003855D01*
X019326Y004216D01*
X019437Y004327D01*
G37*
G36*
X019577Y004467D02*
X019938Y004106D01*
X019827Y003995D01*
X019466Y004356D01*
X019577Y004467D01*
G37*
G36*
X019716Y004606D02*
X020077Y004245D01*
X019966Y004134D01*
X019605Y004495D01*
X019716Y004606D01*
G37*
G36*
X019855Y004745D02*
X020216Y004384D01*
X020105Y004273D01*
X019744Y004634D01*
X019855Y004745D01*
G37*
G36*
X019994Y004884D02*
X020355Y004523D01*
X020244Y004412D01*
X019883Y004773D01*
X019994Y004884D01*
G37*
G36*
X020133Y005023D02*
X020494Y004662D01*
X020383Y004551D01*
X020022Y004912D01*
X020133Y005023D01*
G37*
G36*
X020272Y005163D02*
X020633Y004802D01*
X020522Y004691D01*
X020161Y005052D01*
X020272Y005163D01*
G37*
G36*
X020412Y005302D02*
X020773Y004941D01*
X020662Y004830D01*
X020301Y005191D01*
X020412Y005302D01*
G37*
G36*
X020551Y005441D02*
X020912Y005080D01*
X020801Y004969D01*
X020440Y005330D01*
X020551Y005441D01*
G37*
G36*
X020690Y005580D02*
X021051Y005219D01*
X020940Y005108D01*
X020579Y005469D01*
X020690Y005580D01*
G37*
G36*
X020829Y005719D02*
X021190Y005358D01*
X021079Y005247D01*
X020718Y005608D01*
X020829Y005719D01*
G37*
G36*
X020968Y005859D02*
X021329Y005498D01*
X021218Y005387D01*
X020857Y005748D01*
X020968Y005859D01*
G37*
G36*
X021108Y005998D02*
X021469Y005637D01*
X021358Y005526D01*
X020997Y005887D01*
X021108Y005998D01*
G37*
G36*
X021247Y006137D02*
X021608Y005776D01*
X021497Y005665D01*
X021136Y006026D01*
X021247Y006137D01*
G37*
G36*
X021136Y006889D02*
X021497Y007250D01*
X021608Y007139D01*
X021247Y006778D01*
X021136Y006889D01*
G37*
G36*
X020997Y007029D02*
X021358Y007390D01*
X021469Y007279D01*
X021108Y006918D01*
X020997Y007029D01*
G37*
G36*
X020857Y007168D02*
X021218Y007529D01*
X021329Y007418D01*
X020968Y007057D01*
X020857Y007168D01*
G37*
G36*
X020718Y007307D02*
X021079Y007668D01*
X021190Y007557D01*
X020829Y007196D01*
X020718Y007307D01*
G37*
G36*
X020579Y007446D02*
X020940Y007807D01*
X021051Y007696D01*
X020690Y007335D01*
X020579Y007446D01*
G37*
G36*
X020440Y007585D02*
X020801Y007946D01*
X020912Y007835D01*
X020551Y007474D01*
X020440Y007585D01*
G37*
G36*
X020301Y007725D02*
X020662Y008086D01*
X020773Y007975D01*
X020412Y007614D01*
X020301Y007725D01*
G37*
G36*
X020161Y007864D02*
X020522Y008225D01*
X020633Y008114D01*
X020272Y007753D01*
X020161Y007864D01*
G37*
G36*
X020022Y008003D02*
X020383Y008364D01*
X020494Y008253D01*
X020133Y007892D01*
X020022Y008003D01*
G37*
G36*
X019883Y008142D02*
X020244Y008503D01*
X020355Y008392D01*
X019994Y008031D01*
X019883Y008142D01*
G37*
G36*
X019744Y008281D02*
X020105Y008642D01*
X020216Y008531D01*
X019855Y008170D01*
X019744Y008281D01*
G37*
G36*
X019605Y008421D02*
X019966Y008782D01*
X020077Y008671D01*
X019716Y008310D01*
X019605Y008421D01*
G37*
G36*
X019466Y008560D02*
X019827Y008921D01*
X019938Y008810D01*
X019577Y008449D01*
X019466Y008560D01*
G37*
G36*
X019326Y008699D02*
X019687Y009060D01*
X019798Y008949D01*
X019437Y008588D01*
X019326Y008699D01*
G37*
G36*
X019187Y008838D02*
X019548Y009199D01*
X019659Y009088D01*
X019298Y008727D01*
X019187Y008838D01*
G37*
G36*
X019048Y008977D02*
X019409Y009338D01*
X019520Y009227D01*
X019159Y008866D01*
X019048Y008977D01*
G37*
M02*
