%
M48
M72
T01C0.0130
T02C0.0197
T03C0.0236
T04C0.0300
T05C0.0394
T06C0.0400
%
T01
X6080Y9785
X6055Y8910
X7430Y8385
X10280Y7935
X11705Y8085
X14305Y6810
X14305Y6160
X14305Y5560
X17180Y6485
X19957Y5958
X22102Y6892
X23119Y5808
X26293Y5523
X29027Y6271
X25905Y7598
X23480Y8728
X22705Y8266
X19467Y7932
X17880Y9810
X9380Y9685
X4105Y8885
X4105Y7610
X2680Y6997
X4968Y5335
X5555Y5367
X5299Y5010
X5911Y4760
X5661Y4523
X5286Y4435
X4949Y4560
X4674Y4748
X16543Y2785
X16968Y3135
X18205Y2748
X19043Y3435
X20380Y4185
X21530Y3773
X24674Y3921
T02
X5255Y5723
X13143Y8773
X13780Y8453
X14933Y7423
X18005Y7035
X20768Y6123
X19255Y5460
X19443Y5085
X19055Y4935
X19030Y4485
X18418Y4473
X18305Y4985
X17830Y5435
X19718Y3510
X24155Y3460
X25543Y4048
X27768Y4823
X27668Y6473
T03
X19530Y5785
X20980Y4810
T04
X30430Y7610
X30430Y5360
T05
X2330Y9092
X3180Y9092
X3180Y9879
X2330Y9879
T06
X2680Y1985
X3680Y1985
X4680Y1985
X5680Y1985
X6680Y1985
X7680Y1985
X8680Y1985
X9680Y1985
X10680Y1985
X11680Y1985
X12680Y1985
X13680Y1985
X14680Y1985
X15680Y1985
X16680Y1985
X17680Y1985
X18680Y1985
X20680Y1985
X21680Y1985
X22682Y1987
X23680Y1985
X24680Y1985
X25680Y1985
X26680Y1985
X27680Y1985
X28680Y1985
X29680Y1985
X30680Y1985
X30680Y10985
X29680Y10985
X28680Y10985
X27680Y10985
X26680Y10985
X25680Y10985
X24680Y10985
X23680Y10985
X22680Y10985
X21680Y10985
X20680Y10985
X19680Y10985
X15680Y10985
X14680Y10985
X13680Y10985
X12680Y10985
X11680Y10985
X10680Y10985
X9680Y10985
X8680Y10985
X7668Y10985
X6680Y10985
X5680Y10985
X4680Y10985
X3680Y10985
X2680Y10985
M30
