G75*
%MOIN*%
%OFA0B0*%
%FSLAX24Y24*%
%IPPOS*%
%LPD*%
%AMOC8*
5,1,8,0,0,1.08239X$1,22.5*
%
%ADD10C,0.0000*%
%ADD11C,0.0030*%
%ADD12C,0.0040*%
D10*
X001680Y001485D02*
X001680Y011485D01*
X031180Y011485D01*
X031180Y001485D01*
X001680Y001485D01*
X030280Y005360D02*
X030282Y005384D01*
X030288Y005408D01*
X030297Y005430D01*
X030310Y005450D01*
X030326Y005468D01*
X030345Y005483D01*
X030366Y005496D01*
X030388Y005504D01*
X030412Y005509D01*
X030436Y005510D01*
X030460Y005507D01*
X030483Y005500D01*
X030505Y005490D01*
X030525Y005476D01*
X030542Y005459D01*
X030557Y005440D01*
X030568Y005419D01*
X030576Y005396D01*
X030580Y005372D01*
X030580Y005348D01*
X030576Y005324D01*
X030568Y005301D01*
X030557Y005280D01*
X030542Y005261D01*
X030525Y005244D01*
X030505Y005230D01*
X030483Y005220D01*
X030460Y005213D01*
X030436Y005210D01*
X030412Y005211D01*
X030388Y005216D01*
X030366Y005224D01*
X030345Y005237D01*
X030326Y005252D01*
X030310Y005270D01*
X030297Y005290D01*
X030288Y005312D01*
X030282Y005336D01*
X030280Y005360D01*
X030280Y007610D02*
X030282Y007634D01*
X030288Y007658D01*
X030297Y007680D01*
X030310Y007700D01*
X030326Y007718D01*
X030345Y007733D01*
X030366Y007746D01*
X030388Y007754D01*
X030412Y007759D01*
X030436Y007760D01*
X030460Y007757D01*
X030483Y007750D01*
X030505Y007740D01*
X030525Y007726D01*
X030542Y007709D01*
X030557Y007690D01*
X030568Y007669D01*
X030576Y007646D01*
X030580Y007622D01*
X030580Y007598D01*
X030576Y007574D01*
X030568Y007551D01*
X030557Y007530D01*
X030542Y007511D01*
X030525Y007494D01*
X030505Y007480D01*
X030483Y007470D01*
X030460Y007463D01*
X030436Y007460D01*
X030412Y007461D01*
X030388Y007466D01*
X030366Y007474D01*
X030345Y007487D01*
X030326Y007502D01*
X030310Y007520D01*
X030297Y007540D01*
X030288Y007562D01*
X030282Y007586D01*
X030280Y007610D01*
D11*
X030548Y009516D02*
X030500Y009565D01*
X030500Y009661D01*
X030548Y009710D01*
X030645Y009710D01*
X030645Y009613D01*
X030742Y009516D02*
X030548Y009516D01*
X030742Y009516D02*
X030790Y009565D01*
X030790Y009661D01*
X030742Y009710D01*
X030790Y009811D02*
X030500Y009811D01*
X030500Y010004D02*
X030790Y010004D01*
X030790Y010106D02*
X030500Y010106D01*
X030500Y010251D01*
X030548Y010299D01*
X030742Y010299D01*
X030790Y010251D01*
X030790Y010106D01*
X030790Y009811D02*
X030500Y010004D01*
X029790Y009908D02*
X029693Y010004D01*
X029500Y010004D01*
X029548Y010106D02*
X029500Y010154D01*
X029500Y010251D01*
X029548Y010299D01*
X029597Y010299D01*
X029645Y010251D01*
X029645Y010202D01*
X029645Y010251D02*
X029693Y010299D01*
X029742Y010299D01*
X029790Y010251D01*
X029790Y010154D01*
X029742Y010106D01*
X029645Y010004D02*
X029645Y009811D01*
X029693Y009811D02*
X029500Y009811D01*
X029645Y009710D02*
X029597Y009661D01*
X029597Y009516D01*
X029500Y009516D02*
X029790Y009516D01*
X029790Y009661D01*
X029742Y009710D01*
X029645Y009710D01*
X029693Y009811D02*
X029790Y009908D01*
X028790Y009908D02*
X028693Y010004D01*
X028500Y010004D01*
X028645Y010004D02*
X028645Y009811D01*
X028693Y009811D02*
X028790Y009908D01*
X028693Y009811D02*
X028500Y009811D01*
X028645Y009710D02*
X028597Y009661D01*
X028597Y009516D01*
X028500Y009516D02*
X028790Y009516D01*
X028790Y009661D01*
X028742Y009710D01*
X028645Y009710D01*
X027915Y009661D02*
X027915Y009516D01*
X027625Y009516D01*
X027722Y009516D02*
X027722Y009661D01*
X027770Y009710D01*
X027867Y009710D01*
X027915Y009661D01*
X027818Y009811D02*
X027625Y009811D01*
X027770Y009811D02*
X027770Y010004D01*
X027818Y010004D02*
X027625Y010004D01*
X027673Y010106D02*
X027625Y010154D01*
X027625Y010251D01*
X027673Y010299D01*
X027770Y010299D01*
X027818Y010251D01*
X027818Y010202D01*
X027770Y010106D01*
X027915Y010106D01*
X027915Y010299D01*
X027818Y010004D02*
X027915Y009908D01*
X027818Y009811D01*
X028645Y010106D02*
X028645Y010299D01*
X028500Y010251D02*
X028790Y010251D01*
X028645Y010106D01*
X026790Y010299D02*
X026742Y010202D01*
X026645Y010106D01*
X026645Y010251D01*
X026597Y010299D01*
X026548Y010299D01*
X026500Y010251D01*
X026500Y010154D01*
X026548Y010106D01*
X026645Y010106D01*
X026645Y010004D02*
X026645Y009811D01*
X026693Y009811D02*
X026790Y009908D01*
X026693Y010004D01*
X026500Y010004D01*
X026500Y009811D02*
X026693Y009811D01*
X026645Y009710D02*
X026597Y009661D01*
X026597Y009516D01*
X026500Y009516D02*
X026790Y009516D01*
X026790Y009661D01*
X026742Y009710D01*
X026645Y009710D01*
X025790Y009661D02*
X025790Y009516D01*
X025500Y009516D01*
X025597Y009516D02*
X025597Y009661D01*
X025645Y009710D01*
X025742Y009710D01*
X025790Y009661D01*
X025693Y009811D02*
X025500Y009811D01*
X025645Y009811D02*
X025645Y010004D01*
X025693Y010004D02*
X025500Y010004D01*
X025500Y010106D02*
X025548Y010106D01*
X025742Y010299D01*
X025790Y010299D01*
X025790Y010106D01*
X025693Y010004D02*
X025790Y009908D01*
X025693Y009811D01*
X024790Y009859D02*
X024742Y009811D01*
X024548Y009811D01*
X024500Y009859D01*
X024500Y009956D01*
X024548Y010004D01*
X024645Y010106D02*
X024645Y010299D01*
X024500Y010251D02*
X024790Y010251D01*
X024645Y010106D01*
X024742Y010004D02*
X024790Y009956D01*
X024790Y009859D01*
X024742Y009710D02*
X024645Y009710D01*
X024597Y009661D01*
X024597Y009516D01*
X024500Y009516D02*
X024790Y009516D01*
X024790Y009661D01*
X024742Y009710D01*
X023790Y009661D02*
X023790Y009516D01*
X023500Y009516D01*
X023597Y009516D02*
X023597Y009661D01*
X023645Y009710D01*
X023742Y009710D01*
X023790Y009661D01*
X023742Y009811D02*
X023548Y009811D01*
X023500Y009859D01*
X023500Y009956D01*
X023548Y010004D01*
X023548Y010106D02*
X023500Y010154D01*
X023500Y010251D01*
X023548Y010299D01*
X023645Y010299D01*
X023693Y010251D01*
X023693Y010202D01*
X023645Y010106D01*
X023790Y010106D01*
X023790Y010299D01*
X023742Y010004D02*
X023790Y009956D01*
X023790Y009859D01*
X023742Y009811D01*
X022790Y009811D02*
X022790Y009956D01*
X022742Y010004D01*
X022693Y010004D01*
X022645Y009956D01*
X022645Y009811D01*
X022645Y009710D02*
X022597Y009661D01*
X022597Y009516D01*
X022500Y009516D02*
X022790Y009516D01*
X022790Y009661D01*
X022742Y009710D01*
X022645Y009710D01*
X022500Y009811D02*
X022500Y009956D01*
X022548Y010004D01*
X022597Y010004D01*
X022645Y009956D01*
X022548Y010106D02*
X022742Y010299D01*
X022548Y010299D01*
X022500Y010251D01*
X022500Y010154D01*
X022548Y010106D01*
X022742Y010106D01*
X022790Y010154D01*
X022790Y010251D01*
X022742Y010299D01*
X022790Y009811D02*
X022500Y009811D01*
X021790Y009811D02*
X021790Y009956D01*
X021742Y010004D01*
X021693Y010004D01*
X021645Y009956D01*
X021645Y009811D01*
X021645Y009710D02*
X021597Y009661D01*
X021597Y009516D01*
X021500Y009516D02*
X021790Y009516D01*
X021790Y009661D01*
X021742Y009710D01*
X021645Y009710D01*
X021500Y009811D02*
X021500Y009956D01*
X021548Y010004D01*
X021597Y010004D01*
X021645Y009956D01*
X021693Y010106D02*
X021790Y010202D01*
X021500Y010202D01*
X021500Y010106D02*
X021500Y010299D01*
X021500Y009811D02*
X021790Y009811D01*
X020665Y009908D02*
X020375Y009908D01*
X020375Y010004D02*
X020375Y009811D01*
X020423Y009710D02*
X020375Y009661D01*
X020375Y009516D01*
X020665Y009516D01*
X020665Y009661D01*
X020617Y009710D01*
X020568Y009710D01*
X020520Y009661D01*
X020520Y009516D01*
X020520Y009415D02*
X020472Y009367D01*
X020472Y009222D01*
X020375Y009222D02*
X020665Y009222D01*
X020665Y009367D01*
X020617Y009415D01*
X020520Y009415D01*
X020520Y009661D02*
X020472Y009710D01*
X020423Y009710D01*
X020568Y009811D02*
X020665Y009908D01*
X020617Y010106D02*
X020423Y010106D01*
X020617Y010299D01*
X020423Y010299D01*
X020375Y010251D01*
X020375Y010154D01*
X020423Y010106D01*
X020617Y010106D02*
X020665Y010154D01*
X020665Y010251D01*
X020617Y010299D01*
X019915Y010302D02*
X019625Y010302D01*
X019625Y010206D02*
X019625Y010399D01*
X019818Y010206D02*
X019915Y010302D01*
X019625Y010104D02*
X019625Y009911D01*
X019625Y010008D02*
X019915Y010008D01*
X019818Y009911D01*
X019818Y009810D02*
X019770Y009761D01*
X019770Y009616D01*
X019770Y009515D02*
X019722Y009467D01*
X019722Y009322D01*
X019625Y009322D02*
X019915Y009322D01*
X019915Y009467D01*
X019867Y009515D01*
X019770Y009515D01*
X019625Y009616D02*
X019625Y009761D01*
X019673Y009810D01*
X019722Y009810D01*
X019770Y009761D01*
X019818Y009810D02*
X019867Y009810D01*
X019915Y009761D01*
X019915Y009616D01*
X019625Y009616D01*
X015790Y009661D02*
X015790Y009516D01*
X015500Y009516D01*
X015500Y009661D01*
X015548Y009710D01*
X015597Y009710D01*
X015645Y009661D01*
X015645Y009516D01*
X015645Y009415D02*
X015597Y009367D01*
X015597Y009222D01*
X015500Y009222D02*
X015790Y009222D01*
X015790Y009367D01*
X015742Y009415D01*
X015645Y009415D01*
X015645Y009661D02*
X015693Y009710D01*
X015742Y009710D01*
X015790Y009661D01*
X015693Y009811D02*
X015790Y009908D01*
X015500Y009908D01*
X015500Y010004D02*
X015500Y009811D01*
X015500Y010106D02*
X015693Y010299D01*
X015742Y010299D01*
X015790Y010251D01*
X015790Y010154D01*
X015742Y010106D01*
X015500Y010106D02*
X015500Y010299D01*
X014790Y010251D02*
X014790Y010154D01*
X014742Y010106D01*
X014645Y010202D02*
X014645Y010251D01*
X014597Y010299D01*
X014548Y010299D01*
X014500Y010251D01*
X014500Y010154D01*
X014548Y010106D01*
X014500Y010004D02*
X014500Y009811D01*
X014500Y009908D02*
X014790Y009908D01*
X014693Y009811D01*
X014693Y009710D02*
X014645Y009661D01*
X014645Y009516D01*
X014645Y009415D02*
X014597Y009367D01*
X014597Y009222D01*
X014500Y009222D02*
X014790Y009222D01*
X014790Y009367D01*
X014742Y009415D01*
X014645Y009415D01*
X014500Y009516D02*
X014790Y009516D01*
X014790Y009661D01*
X014742Y009710D01*
X014693Y009710D01*
X014645Y009661D02*
X014597Y009710D01*
X014548Y009710D01*
X014500Y009661D01*
X014500Y009516D01*
X013790Y009516D02*
X013790Y009661D01*
X013742Y009710D01*
X013693Y009710D01*
X013645Y009661D01*
X013645Y009516D01*
X013645Y009415D02*
X013597Y009367D01*
X013597Y009222D01*
X013500Y009222D02*
X013790Y009222D01*
X013790Y009367D01*
X013742Y009415D01*
X013645Y009415D01*
X013500Y009516D02*
X013790Y009516D01*
X013645Y009661D02*
X013597Y009710D01*
X013548Y009710D01*
X013500Y009661D01*
X013500Y009516D01*
X012790Y009516D02*
X012790Y009661D01*
X012742Y009710D01*
X012693Y009710D01*
X012645Y009661D01*
X012645Y009516D01*
X012645Y009415D02*
X012597Y009367D01*
X012597Y009222D01*
X012500Y009222D02*
X012790Y009222D01*
X012790Y009367D01*
X012742Y009415D01*
X012645Y009415D01*
X012500Y009516D02*
X012790Y009516D01*
X012645Y009661D02*
X012597Y009710D01*
X012548Y009710D01*
X012500Y009661D01*
X012500Y009516D01*
X011790Y009516D02*
X011790Y009661D01*
X011742Y009710D01*
X011645Y009710D01*
X011597Y009661D01*
X011597Y009516D01*
X011500Y009516D02*
X011790Y009516D01*
X011742Y009811D02*
X011548Y009811D01*
X011500Y009859D01*
X011500Y009956D01*
X011548Y010004D01*
X011548Y010106D02*
X011500Y010154D01*
X011500Y010251D01*
X011548Y010299D01*
X011597Y010299D01*
X011645Y010251D01*
X011645Y010106D01*
X011548Y010106D01*
X011645Y010106D02*
X011742Y010202D01*
X011790Y010299D01*
X011742Y010004D02*
X011790Y009956D01*
X011790Y009859D01*
X011742Y009811D01*
X012500Y009811D02*
X012500Y010004D01*
X012500Y009908D02*
X012790Y009908D01*
X012693Y009811D01*
X012645Y010106D02*
X012693Y010202D01*
X012693Y010251D01*
X012645Y010299D01*
X012548Y010299D01*
X012500Y010251D01*
X012500Y010154D01*
X012548Y010106D01*
X012645Y010106D02*
X012790Y010106D01*
X012790Y010299D01*
X013500Y010251D02*
X013790Y010251D01*
X013645Y010106D01*
X013645Y010299D01*
X013500Y010004D02*
X013500Y009811D01*
X013500Y009908D02*
X013790Y009908D01*
X013693Y009811D01*
X014645Y010251D02*
X014693Y010299D01*
X014742Y010299D01*
X014790Y010251D01*
X010790Y010299D02*
X010790Y010106D01*
X010742Y010004D02*
X010790Y009956D01*
X010790Y009859D01*
X010742Y009811D01*
X010548Y009811D01*
X010500Y009859D01*
X010500Y009956D01*
X010548Y010004D01*
X010548Y010106D02*
X010500Y010106D01*
X010548Y010106D02*
X010742Y010299D01*
X010790Y010299D01*
X010090Y010263D02*
X010090Y010166D01*
X010042Y010118D01*
X009993Y010118D01*
X009945Y010166D01*
X009945Y010263D01*
X009897Y010312D01*
X009848Y010312D01*
X009800Y010263D01*
X009800Y010166D01*
X009848Y010118D01*
X009897Y010118D01*
X009945Y010166D01*
X009945Y010263D02*
X009993Y010312D01*
X010042Y010312D01*
X010090Y010263D01*
X009615Y010276D02*
X009615Y010179D01*
X009567Y010131D01*
X009518Y010131D01*
X009470Y010179D01*
X009470Y010324D01*
X009373Y010324D02*
X009567Y010324D01*
X009615Y010276D01*
X009373Y010324D02*
X009325Y010276D01*
X009325Y010179D01*
X009373Y010131D01*
X009373Y010029D02*
X009325Y009981D01*
X009325Y009884D01*
X009373Y009836D01*
X009567Y009836D01*
X009615Y009884D01*
X009615Y009981D01*
X009567Y010029D01*
X009800Y009969D02*
X009800Y009872D01*
X009848Y009823D01*
X010042Y009823D01*
X010090Y009872D01*
X010090Y009969D01*
X010042Y010017D01*
X009848Y010017D02*
X009800Y009969D01*
X009945Y009722D02*
X009897Y009674D01*
X009897Y009529D01*
X009800Y009529D02*
X010090Y009529D01*
X010090Y009674D01*
X010042Y009722D01*
X009945Y009722D01*
X009615Y009686D02*
X009615Y009541D01*
X009325Y009541D01*
X009422Y009541D02*
X009422Y009686D01*
X009470Y009735D01*
X009567Y009735D01*
X009615Y009686D01*
X010500Y009516D02*
X010790Y009516D01*
X010790Y009661D01*
X010742Y009710D01*
X010645Y009710D01*
X010597Y009661D01*
X010597Y009516D01*
X006790Y009613D02*
X006693Y009516D01*
X006500Y009516D01*
X006645Y009516D02*
X006645Y009710D01*
X006693Y009710D02*
X006500Y009710D01*
X006500Y009811D02*
X006500Y010004D01*
X006500Y009908D02*
X006790Y009908D01*
X006693Y009811D01*
X006693Y009710D02*
X006790Y009613D01*
X006742Y009415D02*
X006645Y009415D01*
X006597Y009367D01*
X006597Y009222D01*
X006500Y009222D02*
X006790Y009222D01*
X006790Y009367D01*
X006742Y009415D01*
X005965Y009067D02*
X005965Y009019D01*
X005917Y008970D01*
X005820Y008970D01*
X005772Y008922D01*
X005772Y008874D01*
X005820Y008825D01*
X005917Y008825D01*
X005965Y008874D01*
X005965Y009067D02*
X005917Y009116D01*
X005820Y009116D01*
X005772Y009067D01*
X005670Y009116D02*
X005670Y008825D01*
X005574Y008922D01*
X005477Y008825D01*
X005477Y009116D01*
X005376Y009116D02*
X005231Y009116D01*
X005182Y009067D01*
X005182Y008874D01*
X005231Y008825D01*
X005376Y008825D01*
X005376Y009116D01*
X005500Y009222D02*
X005790Y009222D01*
X005790Y009367D01*
X005742Y009415D01*
X005645Y009415D01*
X005597Y009367D01*
X005597Y009222D01*
X005081Y009116D02*
X004984Y009116D01*
X005033Y009116D02*
X005033Y008825D01*
X005081Y008825D02*
X004984Y008825D01*
X004885Y008874D02*
X004836Y008825D01*
X004739Y008825D01*
X004691Y008874D01*
X004691Y009067D01*
X004739Y009116D01*
X004836Y009116D01*
X004885Y009067D01*
X004885Y008874D01*
X005500Y009516D02*
X005693Y009516D01*
X005790Y009613D01*
X005693Y009710D01*
X005500Y009710D01*
X005500Y009811D02*
X005500Y010004D01*
X005500Y009908D02*
X005790Y009908D01*
X005693Y009811D01*
X005645Y009710D02*
X005645Y009516D01*
X004978Y009602D02*
X004978Y009699D01*
X004929Y009747D01*
X004881Y009747D01*
X004833Y009699D01*
X004784Y009747D01*
X004736Y009747D01*
X004688Y009699D01*
X004688Y009602D01*
X004736Y009554D01*
X004833Y009651D02*
X004833Y009699D01*
X004784Y009848D02*
X004688Y009945D01*
X004784Y010042D01*
X004978Y010042D01*
X004929Y010143D02*
X004978Y010191D01*
X004978Y010288D01*
X004929Y010337D01*
X004881Y010337D01*
X004833Y010288D01*
X004784Y010337D01*
X004736Y010337D01*
X004688Y010288D01*
X004688Y010191D01*
X004736Y010143D01*
X004833Y010240D02*
X004833Y010288D01*
X005500Y010251D02*
X005500Y010154D01*
X005548Y010106D01*
X005645Y010202D02*
X005645Y010251D01*
X005597Y010299D01*
X005548Y010299D01*
X005500Y010251D01*
X005645Y010251D02*
X005693Y010299D01*
X005742Y010299D01*
X005790Y010251D01*
X005790Y010154D01*
X005742Y010106D01*
X006500Y010154D02*
X006548Y010106D01*
X006742Y010299D01*
X006548Y010299D01*
X006500Y010251D01*
X006500Y010154D01*
X006548Y010106D02*
X006742Y010106D01*
X006790Y010154D01*
X006790Y010251D01*
X006742Y010299D01*
X004978Y009848D02*
X004784Y009848D01*
X004978Y009602D02*
X004929Y009554D01*
X003915Y009811D02*
X003915Y010004D01*
X003915Y010106D02*
X003722Y010106D01*
X003625Y010202D01*
X003722Y010299D01*
X003915Y010299D01*
X003770Y010004D02*
X003673Y010004D01*
X003625Y009956D01*
X003625Y009859D01*
X003673Y009811D01*
X003770Y009811D02*
X003818Y009908D01*
X003818Y009956D01*
X003770Y010004D01*
X003770Y009811D02*
X003915Y009811D01*
X002140Y010565D02*
X002140Y010661D01*
X002092Y010710D01*
X001995Y010710D02*
X001995Y010613D01*
X001995Y010710D02*
X001898Y010710D01*
X001850Y010661D01*
X001850Y010565D01*
X001898Y010516D01*
X002092Y010516D01*
X002140Y010565D01*
X002140Y010811D02*
X001850Y010811D01*
X001850Y011004D02*
X002140Y011004D01*
X002140Y011106D02*
X001850Y011106D01*
X001850Y011251D01*
X001898Y011299D01*
X002092Y011299D01*
X002140Y011251D01*
X002140Y011106D01*
X002140Y010811D02*
X001850Y011004D01*
X003893Y004141D02*
X004086Y003947D01*
X004038Y003995D02*
X003893Y003850D01*
X004086Y003850D02*
X004086Y004141D01*
X004381Y004141D02*
X004381Y003850D01*
X004188Y003850D01*
X004482Y003899D02*
X004531Y003850D01*
X004627Y003850D01*
X004676Y003899D01*
X004676Y004092D01*
X004627Y004141D01*
X004531Y004141D01*
X004482Y004092D01*
X004777Y004141D02*
X004777Y003850D01*
X004874Y003947D01*
X004970Y003850D01*
X004970Y004141D01*
X005072Y004092D02*
X005120Y004141D01*
X005217Y004141D01*
X005265Y004092D01*
X005265Y004044D01*
X005217Y003995D01*
X005120Y003995D01*
X005072Y003947D01*
X005072Y003899D01*
X005120Y003850D01*
X005217Y003850D01*
X005265Y003899D01*
X005558Y003629D02*
X005606Y003678D01*
X005703Y003678D01*
X005751Y003629D01*
X005751Y003581D01*
X005703Y003484D01*
X005848Y003484D01*
X005848Y003678D01*
X005558Y003629D02*
X005558Y003533D01*
X005606Y003484D01*
X005558Y003383D02*
X005558Y003190D01*
X005558Y003286D02*
X005848Y003286D01*
X005751Y003190D01*
X005751Y003088D02*
X005558Y003088D01*
X005703Y003088D02*
X005703Y002895D01*
X005751Y002895D02*
X005848Y002992D01*
X005751Y003088D01*
X005751Y002895D02*
X005558Y002895D01*
X005703Y002794D02*
X005654Y002745D01*
X005654Y002600D01*
X005558Y002600D02*
X005848Y002600D01*
X005848Y002745D01*
X005799Y002794D01*
X005703Y002794D01*
X006508Y002943D02*
X006508Y003040D01*
X006556Y003088D01*
X006508Y003190D02*
X006508Y003383D01*
X006508Y003286D02*
X006798Y003286D01*
X006701Y003190D01*
X006749Y003088D02*
X006798Y003040D01*
X006798Y002943D01*
X006749Y002895D01*
X006556Y002895D01*
X006508Y002943D01*
X006653Y002794D02*
X006604Y002745D01*
X006604Y002600D01*
X006508Y002600D02*
X006798Y002600D01*
X006798Y002745D01*
X006749Y002794D01*
X006653Y002794D01*
X007495Y002943D02*
X007495Y003040D01*
X007543Y003088D01*
X007495Y003190D02*
X007495Y003383D01*
X007495Y003286D02*
X007785Y003286D01*
X007688Y003190D01*
X007737Y003088D02*
X007785Y003040D01*
X007785Y002943D01*
X007737Y002895D01*
X007543Y002895D01*
X007495Y002943D01*
X007640Y002794D02*
X007592Y002745D01*
X007592Y002600D01*
X007495Y002600D02*
X007785Y002600D01*
X007785Y002745D01*
X007737Y002794D01*
X007640Y002794D01*
X008495Y002943D02*
X008495Y003040D01*
X008543Y003088D01*
X008495Y003190D02*
X008495Y003383D01*
X008495Y003286D02*
X008785Y003286D01*
X008688Y003190D01*
X008737Y003088D02*
X008785Y003040D01*
X008785Y002943D01*
X008737Y002895D01*
X008543Y002895D01*
X008495Y002943D01*
X008640Y002794D02*
X008592Y002745D01*
X008592Y002600D01*
X008495Y002600D02*
X008785Y002600D01*
X008785Y002745D01*
X008737Y002794D01*
X008640Y002794D01*
X009495Y002895D02*
X009495Y003040D01*
X009543Y003088D01*
X009737Y003088D01*
X009785Y003040D01*
X009785Y002895D01*
X009495Y002895D01*
X009640Y002794D02*
X009592Y002745D01*
X009592Y002600D01*
X009495Y002600D02*
X009785Y002600D01*
X009785Y002745D01*
X009737Y002794D01*
X009640Y002794D01*
X009737Y003190D02*
X009785Y003238D01*
X009785Y003335D01*
X009737Y003383D01*
X009688Y003383D01*
X009495Y003190D01*
X009495Y003383D01*
X008785Y003533D02*
X008737Y003484D01*
X008785Y003533D02*
X008785Y003629D01*
X008737Y003678D01*
X008688Y003678D01*
X008495Y003484D01*
X008495Y003678D01*
X007785Y003581D02*
X007688Y003484D01*
X007785Y003581D02*
X007495Y003581D01*
X007495Y003484D02*
X007495Y003678D01*
X006798Y003629D02*
X006749Y003678D01*
X006556Y003484D01*
X006508Y003533D01*
X006508Y003629D01*
X006556Y003678D01*
X006749Y003678D01*
X006798Y003629D02*
X006798Y003533D01*
X006749Y003484D01*
X006556Y003484D01*
X004810Y003629D02*
X004665Y003484D01*
X004665Y003678D01*
X004520Y003629D02*
X004810Y003629D01*
X004520Y003383D02*
X004520Y003190D01*
X004520Y003286D02*
X004810Y003286D01*
X004713Y003190D01*
X004713Y003088D02*
X004520Y003088D01*
X004665Y003088D02*
X004665Y002895D01*
X004713Y002895D02*
X004810Y002992D01*
X004713Y003088D01*
X004713Y002895D02*
X004520Y002895D01*
X004665Y002794D02*
X004617Y002745D01*
X004617Y002600D01*
X004520Y002600D02*
X004810Y002600D01*
X004810Y002745D01*
X004762Y002794D01*
X004665Y002794D01*
X003790Y002741D02*
X003790Y002886D01*
X003742Y002935D01*
X003645Y002935D01*
X003597Y002886D01*
X003597Y002741D01*
X003500Y002741D02*
X003790Y002741D01*
X003693Y003036D02*
X003790Y003133D01*
X003693Y003229D01*
X003500Y003229D01*
X003548Y003331D02*
X003597Y003331D01*
X003645Y003379D01*
X003645Y003476D01*
X003597Y003524D01*
X003548Y003524D01*
X003500Y003476D01*
X003500Y003379D01*
X003548Y003331D01*
X003645Y003379D02*
X003693Y003331D01*
X003742Y003331D01*
X003790Y003379D01*
X003790Y003476D01*
X003742Y003524D01*
X003693Y003524D01*
X003645Y003476D01*
X003645Y003229D02*
X003645Y003036D01*
X003693Y003036D02*
X003500Y003036D01*
X002785Y003088D02*
X002495Y003088D01*
X002785Y002895D01*
X002495Y002895D01*
X002543Y002794D02*
X002495Y002745D01*
X002495Y002649D01*
X002543Y002600D01*
X002737Y002600D01*
X002785Y002649D01*
X002785Y002745D01*
X002737Y002794D01*
X002640Y002794D02*
X002640Y002697D01*
X002640Y002794D02*
X002543Y002794D01*
X002495Y003190D02*
X002495Y003335D01*
X002543Y003383D01*
X002737Y003383D01*
X002785Y003335D01*
X002785Y003190D01*
X002495Y003190D01*
X010508Y003238D02*
X010556Y003190D01*
X010508Y003238D02*
X010508Y003335D01*
X010556Y003383D01*
X010604Y003383D01*
X010653Y003335D01*
X010653Y003286D01*
X010653Y003335D02*
X010701Y003383D01*
X010749Y003383D01*
X010798Y003335D01*
X010798Y003238D01*
X010749Y003190D01*
X010749Y003088D02*
X010701Y003088D01*
X010653Y003040D01*
X010653Y002895D01*
X010653Y002794D02*
X010604Y002745D01*
X010604Y002600D01*
X010508Y002600D02*
X010798Y002600D01*
X010798Y002745D01*
X010749Y002794D01*
X010653Y002794D01*
X010508Y002895D02*
X010798Y002895D01*
X010798Y003040D01*
X010749Y003088D01*
X010653Y003040D02*
X010604Y003088D01*
X010556Y003088D01*
X010508Y003040D01*
X010508Y002895D01*
X011495Y002895D02*
X011495Y003040D01*
X011543Y003088D01*
X011592Y003088D01*
X011640Y003040D01*
X011640Y002895D01*
X011640Y002794D02*
X011592Y002745D01*
X011592Y002600D01*
X011495Y002600D02*
X011785Y002600D01*
X011785Y002745D01*
X011737Y002794D01*
X011640Y002794D01*
X011495Y002895D02*
X011785Y002895D01*
X011785Y003040D01*
X011737Y003088D01*
X011688Y003088D01*
X011640Y003040D01*
X011640Y003190D02*
X011640Y003383D01*
X011495Y003335D02*
X011785Y003335D01*
X011640Y003190D01*
X012508Y003238D02*
X012556Y003190D01*
X012508Y003238D02*
X012508Y003335D01*
X012556Y003383D01*
X012653Y003383D01*
X012701Y003335D01*
X012701Y003286D01*
X012653Y003190D01*
X012798Y003190D01*
X012798Y003383D01*
X012749Y003088D02*
X012701Y003088D01*
X012653Y003040D01*
X012653Y002895D01*
X012653Y002794D02*
X012604Y002745D01*
X012604Y002600D01*
X012508Y002600D02*
X012798Y002600D01*
X012798Y002745D01*
X012749Y002794D01*
X012653Y002794D01*
X012508Y002895D02*
X012798Y002895D01*
X012798Y003040D01*
X012749Y003088D01*
X012653Y003040D02*
X012604Y003088D01*
X012556Y003088D01*
X012508Y003040D01*
X012508Y002895D01*
X013495Y002895D02*
X013495Y003040D01*
X013543Y003088D01*
X013592Y003088D01*
X013640Y003040D01*
X013640Y002895D01*
X013640Y002794D02*
X013592Y002745D01*
X013592Y002600D01*
X013495Y002600D02*
X013785Y002600D01*
X013785Y002745D01*
X013737Y002794D01*
X013640Y002794D01*
X013495Y002895D02*
X013785Y002895D01*
X013785Y003040D01*
X013737Y003088D01*
X013688Y003088D01*
X013640Y003040D01*
X013640Y003190D02*
X013543Y003190D01*
X013495Y003238D01*
X013495Y003335D01*
X013543Y003383D01*
X013592Y003383D01*
X013640Y003335D01*
X013640Y003190D01*
X013737Y003286D01*
X013785Y003383D01*
X014495Y003202D02*
X014543Y003202D01*
X014737Y003396D01*
X014785Y003396D01*
X014785Y003202D01*
X014737Y003101D02*
X014688Y003101D01*
X014640Y003053D01*
X014640Y002907D01*
X014640Y002806D02*
X014592Y002758D01*
X014592Y002613D01*
X014495Y002613D02*
X014785Y002613D01*
X014785Y002758D01*
X014737Y002806D01*
X014640Y002806D01*
X014495Y002907D02*
X014785Y002907D01*
X014785Y003053D01*
X014737Y003101D01*
X014640Y003053D02*
X014592Y003101D01*
X014543Y003101D01*
X014495Y003053D01*
X014495Y002907D01*
X015570Y002870D02*
X015570Y002725D01*
X015860Y002725D01*
X015860Y002870D01*
X015812Y002919D01*
X015763Y002919D01*
X015715Y002870D01*
X015715Y002725D01*
X015715Y002870D02*
X015667Y002919D01*
X015618Y002919D01*
X015570Y002870D01*
X015618Y003020D02*
X015570Y003068D01*
X015570Y003165D01*
X015618Y003213D01*
X015812Y003213D01*
X015860Y003165D01*
X015860Y003068D01*
X015812Y003020D01*
X015618Y003020D01*
X015618Y003315D02*
X015570Y003363D01*
X015570Y003460D01*
X015618Y003508D01*
X015812Y003508D01*
X015860Y003460D01*
X015860Y003363D01*
X015812Y003315D01*
X015618Y003315D01*
X015860Y003609D02*
X015860Y003803D01*
X015860Y003706D02*
X015570Y003706D01*
X015618Y003904D02*
X015812Y004097D01*
X015618Y004097D01*
X015570Y004049D01*
X015570Y003952D01*
X015618Y003904D01*
X015812Y003904D01*
X015860Y003952D01*
X015860Y004049D01*
X015812Y004097D01*
X016306Y003371D02*
X016258Y003322D01*
X016258Y003225D01*
X016306Y003177D01*
X016354Y003177D01*
X016403Y003225D01*
X016403Y003322D01*
X016354Y003371D01*
X016306Y003371D01*
X016403Y003322D02*
X016451Y003371D01*
X016499Y003371D01*
X016548Y003322D01*
X016548Y003225D01*
X016499Y003177D01*
X016451Y003177D01*
X016403Y003225D01*
X016451Y003076D02*
X016403Y003028D01*
X016403Y002882D01*
X016403Y002781D02*
X016354Y002733D01*
X016354Y002588D01*
X016258Y002588D02*
X016548Y002588D01*
X016548Y002733D01*
X016499Y002781D01*
X016403Y002781D01*
X016258Y002882D02*
X016548Y002882D01*
X016548Y003028D01*
X016499Y003076D01*
X016451Y003076D01*
X016403Y003028D02*
X016354Y003076D01*
X016306Y003076D01*
X016258Y003028D01*
X016258Y002882D01*
X017445Y002870D02*
X017445Y003015D01*
X017493Y003063D01*
X017542Y003063D01*
X017590Y003015D01*
X017590Y002870D01*
X017590Y002769D02*
X017542Y002720D01*
X017542Y002575D01*
X017445Y002575D02*
X017735Y002575D01*
X017735Y002720D01*
X017687Y002769D01*
X017590Y002769D01*
X017445Y002870D02*
X017735Y002870D01*
X017735Y003015D01*
X017687Y003063D01*
X017638Y003063D01*
X017590Y003015D01*
X017638Y003165D02*
X017590Y003213D01*
X017590Y003358D01*
X017493Y003358D02*
X017687Y003358D01*
X017735Y003310D01*
X017735Y003213D01*
X017687Y003165D01*
X017638Y003165D01*
X017493Y003165D02*
X017445Y003213D01*
X017445Y003310D01*
X017493Y003358D01*
X018558Y003383D02*
X018558Y003190D01*
X018558Y003286D02*
X018848Y003286D01*
X018751Y003190D01*
X018799Y003088D02*
X018848Y003040D01*
X018848Y002943D01*
X018799Y002895D01*
X018606Y002895D01*
X018558Y002943D01*
X018558Y003040D01*
X018606Y003088D01*
X018606Y003484D02*
X018558Y003533D01*
X018558Y003629D01*
X018606Y003678D01*
X018654Y003678D01*
X018703Y003629D01*
X018703Y003581D01*
X018703Y003629D02*
X018751Y003678D01*
X018799Y003678D01*
X018848Y003629D01*
X018848Y003533D01*
X018799Y003484D01*
X018799Y002794D02*
X018703Y002794D01*
X018654Y002745D01*
X018654Y002600D01*
X018558Y002600D02*
X018848Y002600D01*
X018848Y002745D01*
X018799Y002794D01*
X020570Y002943D02*
X020618Y002895D01*
X020812Y002895D01*
X020860Y002943D01*
X020860Y003040D01*
X020812Y003088D01*
X020763Y003190D02*
X020860Y003286D01*
X020570Y003286D01*
X020570Y003190D02*
X020570Y003383D01*
X020715Y003484D02*
X020715Y003678D01*
X020570Y003629D02*
X020860Y003629D01*
X020715Y003484D01*
X020618Y003088D02*
X020570Y003040D01*
X020570Y002943D01*
X020715Y002794D02*
X020667Y002745D01*
X020667Y002600D01*
X020570Y002600D02*
X020860Y002600D01*
X020860Y002745D01*
X020812Y002794D01*
X020715Y002794D01*
X021695Y002956D02*
X021743Y002907D01*
X021937Y002907D01*
X021985Y002956D01*
X021985Y003053D01*
X021937Y003101D01*
X021888Y003202D02*
X021985Y003299D01*
X021695Y003299D01*
X021695Y003202D02*
X021695Y003396D01*
X021743Y003497D02*
X021695Y003545D01*
X021695Y003642D01*
X021743Y003690D01*
X021840Y003690D01*
X021888Y003642D01*
X021888Y003593D01*
X021840Y003497D01*
X021985Y003497D01*
X021985Y003690D01*
X022737Y003422D02*
X022737Y003229D01*
X022737Y003326D02*
X022447Y003326D01*
X022495Y003128D02*
X022447Y003079D01*
X022447Y002982D01*
X022495Y002934D01*
X022592Y002982D02*
X022640Y002934D01*
X022689Y002934D01*
X022737Y002982D01*
X022737Y003079D01*
X022689Y003128D01*
X022592Y003079D02*
X022543Y003128D01*
X022495Y003128D01*
X022592Y003079D02*
X022592Y002982D01*
X022592Y002833D02*
X022543Y002785D01*
X022543Y002639D01*
X022447Y002639D02*
X022737Y002639D01*
X022737Y002785D01*
X022689Y002833D01*
X022592Y002833D01*
X022543Y002736D02*
X022447Y002833D01*
X022797Y002624D02*
X022797Y003508D01*
X023633Y003347D02*
X023633Y003250D01*
X023681Y003202D01*
X023874Y003396D01*
X023681Y003396D01*
X023633Y003347D01*
X023681Y003202D02*
X023874Y003202D01*
X023923Y003250D01*
X023923Y003347D01*
X023874Y003396D01*
X023874Y003101D02*
X023923Y003053D01*
X023923Y002956D01*
X023874Y002907D01*
X023681Y002907D01*
X023633Y002956D01*
X023633Y003053D01*
X023681Y003101D01*
X023778Y002806D02*
X023729Y002758D01*
X023729Y002613D01*
X023633Y002613D02*
X023923Y002613D01*
X023923Y002758D01*
X023874Y002806D01*
X023778Y002806D01*
X024520Y002943D02*
X024568Y002895D01*
X024762Y002895D01*
X024810Y002943D01*
X024810Y003040D01*
X024762Y003088D01*
X024713Y003190D02*
X024810Y003286D01*
X024520Y003286D01*
X024520Y003190D02*
X024520Y003383D01*
X024568Y003088D02*
X024520Y003040D01*
X024520Y002943D01*
X024665Y002794D02*
X024617Y002745D01*
X024617Y002600D01*
X024520Y002600D02*
X024810Y002600D01*
X024810Y002745D01*
X024762Y002794D01*
X024665Y002794D01*
X025620Y002625D02*
X025910Y002625D01*
X025910Y002770D01*
X025862Y002819D01*
X025765Y002819D01*
X025717Y002770D01*
X025717Y002625D01*
X025668Y002920D02*
X025620Y002968D01*
X025620Y003065D01*
X025668Y003113D01*
X025620Y003215D02*
X025813Y003408D01*
X025862Y003408D01*
X025910Y003360D01*
X025910Y003263D01*
X025862Y003215D01*
X025862Y003113D02*
X025910Y003065D01*
X025910Y002968D01*
X025862Y002920D01*
X025668Y002920D01*
X025620Y003215D02*
X025620Y003408D01*
X026508Y003310D02*
X026508Y003213D01*
X026556Y003165D01*
X026556Y003063D02*
X026508Y003015D01*
X026508Y002918D01*
X026556Y002870D01*
X026749Y002870D01*
X026798Y002918D01*
X026798Y003015D01*
X026749Y003063D01*
X026749Y003165D02*
X026798Y003213D01*
X026798Y003310D01*
X026749Y003358D01*
X026701Y003358D01*
X026653Y003310D01*
X026604Y003358D01*
X026556Y003358D01*
X026508Y003310D01*
X026653Y003310D02*
X026653Y003261D01*
X027508Y003263D02*
X027556Y003215D01*
X027749Y003408D01*
X027556Y003408D01*
X027508Y003360D01*
X027508Y003263D01*
X027556Y003215D02*
X027749Y003215D01*
X027798Y003263D01*
X027798Y003360D01*
X027749Y003408D01*
X027701Y003113D02*
X027508Y003113D01*
X027653Y003113D02*
X027653Y002920D01*
X027701Y002920D02*
X027798Y003017D01*
X027701Y003113D01*
X027701Y002920D02*
X027508Y002920D01*
X027653Y002819D02*
X027604Y002770D01*
X027604Y002625D01*
X027508Y002625D02*
X027798Y002625D01*
X027798Y002770D01*
X027749Y002819D01*
X027653Y002819D01*
X026798Y002720D02*
X026798Y002575D01*
X026508Y002575D01*
X026604Y002575D02*
X026604Y002720D01*
X026653Y002769D01*
X026749Y002769D01*
X026798Y002720D01*
X028545Y002613D02*
X028835Y002613D01*
X028835Y002758D01*
X028787Y002806D01*
X028690Y002806D01*
X028642Y002758D01*
X028642Y002613D01*
X028690Y002907D02*
X028690Y003101D01*
X028738Y003101D02*
X028545Y003101D01*
X028545Y003202D02*
X028545Y003396D01*
X028545Y003299D02*
X028835Y003299D01*
X028738Y003202D01*
X028738Y003101D02*
X028835Y003004D01*
X028738Y002907D01*
X028545Y002907D01*
X029558Y002895D02*
X029751Y002895D01*
X029848Y002992D01*
X029751Y003088D01*
X029558Y003088D01*
X029558Y003190D02*
X029751Y003383D01*
X029799Y003383D01*
X029848Y003335D01*
X029848Y003238D01*
X029799Y003190D01*
X029703Y003088D02*
X029703Y002895D01*
X029703Y002794D02*
X029654Y002745D01*
X029654Y002600D01*
X029558Y002600D02*
X029848Y002600D01*
X029848Y002745D01*
X029799Y002794D01*
X029703Y002794D01*
X030508Y002745D02*
X030508Y002649D01*
X030556Y002600D01*
X030749Y002600D01*
X030798Y002649D01*
X030798Y002745D01*
X030749Y002794D01*
X030653Y002794D02*
X030653Y002697D01*
X030653Y002794D02*
X030556Y002794D01*
X030508Y002745D01*
X030508Y002895D02*
X030798Y002895D01*
X030508Y003088D01*
X030798Y003088D01*
X030798Y003190D02*
X030798Y003335D01*
X030749Y003383D01*
X030556Y003383D01*
X030508Y003335D01*
X030508Y003190D01*
X030798Y003190D01*
X029558Y003190D02*
X029558Y003383D01*
X021985Y002758D02*
X021985Y002613D01*
X021695Y002613D01*
X021792Y002613D02*
X021792Y002758D01*
X021840Y002806D01*
X021937Y002806D01*
X021985Y002758D01*
X021695Y002956D02*
X021695Y003053D01*
X021743Y003101D01*
D12*
X008985Y009476D02*
X008675Y009476D01*
X008778Y009476D02*
X008778Y009631D01*
X008830Y009683D01*
X008934Y009683D01*
X008985Y009631D01*
X008985Y009476D01*
X008882Y009798D02*
X008675Y009798D01*
X008830Y009798D02*
X008830Y010005D01*
X008882Y010005D02*
X008675Y010005D01*
X008727Y010120D02*
X008675Y010172D01*
X008675Y010276D01*
X008727Y010327D01*
X008934Y010327D01*
X008985Y010276D01*
X008985Y010172D01*
X008934Y010120D01*
X008882Y010120D01*
X008830Y010172D01*
X008830Y010327D01*
X008882Y010005D02*
X008985Y009902D01*
X008882Y009798D01*
M02*
