G75*
%MOIN*%
%OFA0B0*%
%FSLAX24Y24*%
%IPPOS*%
%LPD*%
%AMOC8*
5,1,8,0,0,1.08239X$1,22.5*
%
%ADD10C,0.0000*%
%ADD11C,0.0594*%
%ADD12C,0.0700*%
%ADD13C,0.0100*%
%ADD14C,0.0250*%
%ADD15C,0.0200*%
%ADD16C,0.0500*%
%ADD17C,0.0160*%
%ADD18C,0.0080*%
%ADD19C,0.0317*%
%ADD20C,0.0120*%
%ADD21C,0.0356*%
D10*
X001680Y001485D02*
X001680Y011485D01*
X031180Y011485D01*
X031180Y001485D01*
X001680Y001485D01*
X030280Y005360D02*
X030282Y005384D01*
X030288Y005408D01*
X030297Y005430D01*
X030310Y005450D01*
X030326Y005468D01*
X030345Y005483D01*
X030366Y005496D01*
X030388Y005504D01*
X030412Y005509D01*
X030436Y005510D01*
X030460Y005507D01*
X030483Y005500D01*
X030505Y005490D01*
X030525Y005476D01*
X030542Y005459D01*
X030557Y005440D01*
X030568Y005419D01*
X030576Y005396D01*
X030580Y005372D01*
X030580Y005348D01*
X030576Y005324D01*
X030568Y005301D01*
X030557Y005280D01*
X030542Y005261D01*
X030525Y005244D01*
X030505Y005230D01*
X030483Y005220D01*
X030460Y005213D01*
X030436Y005210D01*
X030412Y005211D01*
X030388Y005216D01*
X030366Y005224D01*
X030345Y005237D01*
X030326Y005252D01*
X030310Y005270D01*
X030297Y005290D01*
X030288Y005312D01*
X030282Y005336D01*
X030280Y005360D01*
X030280Y007610D02*
X030282Y007634D01*
X030288Y007658D01*
X030297Y007680D01*
X030310Y007700D01*
X030326Y007718D01*
X030345Y007733D01*
X030366Y007746D01*
X030388Y007754D01*
X030412Y007759D01*
X030436Y007760D01*
X030460Y007757D01*
X030483Y007750D01*
X030505Y007740D01*
X030525Y007726D01*
X030542Y007709D01*
X030557Y007690D01*
X030568Y007669D01*
X030576Y007646D01*
X030580Y007622D01*
X030580Y007598D01*
X030576Y007574D01*
X030568Y007551D01*
X030557Y007530D01*
X030542Y007511D01*
X030525Y007494D01*
X030505Y007480D01*
X030483Y007470D01*
X030460Y007463D01*
X030436Y007460D01*
X030412Y007461D01*
X030388Y007466D01*
X030366Y007474D01*
X030345Y007487D01*
X030326Y007502D01*
X030310Y007520D01*
X030297Y007540D01*
X030288Y007562D01*
X030282Y007586D01*
X030280Y007610D01*
D11*
X003180Y009092D03*
X002330Y009092D03*
X002330Y009879D03*
X003180Y009879D03*
D12*
X002680Y010985D03*
X003680Y010985D03*
X004680Y010985D03*
X005680Y010985D03*
X006680Y010985D03*
X007668Y010985D03*
X008680Y010985D03*
X009680Y010985D03*
X010680Y010985D03*
X011680Y010985D03*
X012680Y010985D03*
X013680Y010985D03*
X014680Y010985D03*
X015680Y010985D03*
X019680Y010985D03*
X020680Y010985D03*
X021680Y010985D03*
X022680Y010985D03*
X023680Y010985D03*
X024680Y010985D03*
X025680Y010985D03*
X026680Y010985D03*
X027680Y010985D03*
X028680Y010985D03*
X029680Y010985D03*
X030680Y010985D03*
X030680Y001985D03*
X029680Y001985D03*
X028680Y001985D03*
X027680Y001985D03*
X026680Y001985D03*
X025680Y001985D03*
X024680Y001985D03*
X023680Y001985D03*
X022682Y001987D03*
X021680Y001985D03*
X020680Y001985D03*
X018680Y001985D03*
X017680Y001985D03*
X016680Y001985D03*
X015680Y001985D03*
X014680Y001985D03*
X013680Y001985D03*
X012680Y001985D03*
X011680Y001985D03*
X010680Y001985D03*
X009680Y001985D03*
X008680Y001985D03*
X007680Y001985D03*
X006680Y001985D03*
X005680Y001985D03*
X004680Y001985D03*
X003680Y001985D03*
X002680Y001985D03*
D13*
X002730Y001978D02*
X003180Y001978D01*
X003178Y001935D02*
X002730Y001935D01*
X002730Y002035D01*
X003178Y002035D01*
X003168Y002102D01*
X003143Y002177D01*
X003108Y002247D01*
X003061Y002311D01*
X003006Y002367D01*
X002942Y002413D01*
X002872Y002449D01*
X002797Y002473D01*
X002730Y002484D01*
X002730Y002035D01*
X002630Y002035D01*
X002630Y001935D01*
X002182Y001935D01*
X002192Y001868D01*
X002217Y001793D01*
X002252Y001723D01*
X002299Y001660D01*
X002323Y001635D01*
X001830Y001635D01*
X001830Y011335D01*
X002323Y011335D01*
X002299Y011311D01*
X002252Y011247D01*
X002217Y011177D01*
X002192Y011102D01*
X002182Y011035D01*
X002630Y011035D01*
X002630Y010935D01*
X002730Y010935D01*
X002730Y010487D01*
X002797Y010498D01*
X002872Y010522D01*
X002942Y010558D01*
X003006Y010604D01*
X003061Y010660D01*
X003108Y010723D01*
X003143Y010793D01*
X003168Y010868D01*
X003178Y010935D01*
X002730Y010935D01*
X002730Y011035D01*
X003178Y011035D01*
X003168Y011102D01*
X003143Y011177D01*
X003108Y011247D01*
X003061Y011311D01*
X003037Y011335D01*
X003180Y011335D01*
X003180Y010610D01*
X003263Y010527D01*
X003157Y010421D01*
X003040Y010305D01*
X002927Y010258D01*
X002801Y010132D01*
X002755Y010021D01*
X002709Y010132D01*
X002583Y010258D01*
X002419Y010326D01*
X002241Y010326D01*
X002077Y010258D01*
X001951Y010132D01*
X001883Y009968D01*
X001883Y009790D01*
X001951Y009626D01*
X002077Y009500D01*
X002113Y009485D01*
X002077Y009470D01*
X001951Y009345D01*
X001883Y009180D01*
X001883Y009003D01*
X001951Y008838D01*
X002077Y008713D01*
X002241Y008645D01*
X002419Y008645D01*
X002434Y008651D01*
X002430Y008641D01*
X002430Y007112D01*
X002405Y007052D01*
X002405Y006942D01*
X002447Y006841D01*
X002524Y006764D01*
X002625Y006722D01*
X002735Y006722D01*
X002836Y006764D01*
X002913Y006841D01*
X002955Y006942D01*
X002955Y007052D01*
X002930Y007112D01*
X002930Y008488D01*
X003088Y008646D01*
X003091Y008645D01*
X003269Y008645D01*
X003433Y008713D01*
X003559Y008838D01*
X003627Y009003D01*
X003627Y009180D01*
X003559Y009345D01*
X003433Y009470D01*
X003397Y009485D01*
X003433Y009500D01*
X003559Y009626D01*
X003606Y009739D01*
X003637Y009770D01*
X003822Y009585D01*
X005891Y009585D01*
X005924Y009552D01*
X006025Y009510D01*
X006135Y009510D01*
X006236Y009552D01*
X006313Y009629D01*
X006355Y009731D01*
X006355Y009735D01*
X006455Y009635D01*
X006005Y009185D01*
X006000Y009185D01*
X005899Y009143D01*
X005822Y009066D01*
X005780Y008965D01*
X005780Y008856D01*
X005822Y008754D01*
X005899Y008677D01*
X006000Y008635D01*
X006110Y008635D01*
X006211Y008677D01*
X006288Y008754D01*
X006330Y008856D01*
X006330Y008860D01*
X006780Y009310D01*
X009835Y006255D01*
X017021Y006255D01*
X017024Y006252D01*
X017125Y006210D01*
X017235Y006210D01*
X017336Y006252D01*
X017413Y006329D01*
X017455Y006431D01*
X017455Y006540D01*
X017413Y006641D01*
X017336Y006718D01*
X017235Y006760D01*
X017125Y006760D01*
X017024Y006718D01*
X017021Y006715D01*
X010025Y006715D01*
X007035Y009706D01*
X006900Y009840D01*
X006705Y010035D01*
X006807Y010035D01*
X009649Y007194D01*
X014726Y007194D01*
X014758Y007162D01*
X014871Y007115D01*
X014994Y007115D01*
X015107Y007162D01*
X015194Y007249D01*
X015241Y007362D01*
X015241Y007485D01*
X015194Y007598D01*
X015107Y007685D01*
X014994Y007732D01*
X014871Y007732D01*
X014758Y007685D01*
X014687Y007614D01*
X009823Y007614D01*
X009193Y008243D01*
X013554Y008243D01*
X013605Y008192D01*
X013719Y008145D01*
X013841Y008145D01*
X013955Y008192D01*
X014042Y008279D01*
X014089Y008392D01*
X014089Y008515D01*
X014042Y008628D01*
X013955Y008715D01*
X013841Y008762D01*
X013719Y008762D01*
X013605Y008715D01*
X013554Y008663D01*
X013431Y008663D01*
X013451Y008711D01*
X013451Y008834D01*
X013404Y008947D01*
X013317Y009034D01*
X013204Y009081D01*
X013081Y009081D01*
X012968Y009034D01*
X012929Y008995D01*
X009629Y008995D01*
X008264Y010360D01*
X029930Y010360D01*
X030180Y010610D01*
X030180Y011335D01*
X030323Y011335D01*
X030299Y011311D01*
X030252Y011247D01*
X030217Y011177D01*
X030192Y011102D01*
X030182Y011035D01*
X030630Y011035D01*
X030630Y010935D01*
X030730Y010935D01*
X030730Y010487D01*
X030797Y010498D01*
X030872Y010522D01*
X030942Y010558D01*
X031006Y010604D01*
X031030Y010628D01*
X031030Y002342D01*
X031006Y002367D01*
X030942Y002413D01*
X030872Y002449D01*
X030797Y002473D01*
X030730Y002484D01*
X030730Y002035D01*
X030630Y002035D01*
X030630Y001935D01*
X030182Y001935D01*
X030192Y001868D01*
X030217Y001793D01*
X030252Y001723D01*
X030299Y001660D01*
X030323Y001635D01*
X030180Y001635D01*
X030180Y002360D01*
X029930Y002610D01*
X026452Y002610D01*
X025812Y003250D01*
X026492Y003250D01*
X026615Y003373D01*
X027756Y004514D01*
X027829Y004514D01*
X027942Y004561D01*
X028029Y004648D01*
X028076Y004761D01*
X028076Y004884D01*
X028029Y004997D01*
X027942Y005084D01*
X027829Y005131D01*
X027706Y005131D01*
X027593Y005084D01*
X027506Y004997D01*
X027459Y004884D01*
X027459Y004811D01*
X026318Y003670D01*
X024381Y003670D01*
X024330Y003722D01*
X024216Y003769D01*
X024094Y003769D01*
X023980Y003722D01*
X023894Y003635D01*
X023859Y003553D01*
X022642Y004770D01*
X021308Y004770D01*
X021308Y004876D01*
X021258Y004996D01*
X021166Y005088D01*
X021045Y005138D01*
X020915Y005138D01*
X020794Y005088D01*
X020702Y004996D01*
X020682Y004947D01*
X019858Y005757D01*
X019858Y005851D01*
X019808Y005971D01*
X019716Y006063D01*
X019595Y006113D01*
X019465Y006113D01*
X019344Y006063D01*
X019252Y005971D01*
X019202Y005851D01*
X019202Y005769D01*
X019194Y005769D01*
X019080Y005722D01*
X018994Y005635D01*
X018947Y005522D01*
X018947Y005399D01*
X018994Y005286D01*
X019035Y005244D01*
X018994Y005244D01*
X018880Y005197D01*
X018794Y005110D01*
X018747Y004997D01*
X018747Y004874D01*
X018794Y004761D01*
X018831Y004723D01*
X018769Y004660D01*
X018722Y004547D01*
X018722Y004545D01*
X018679Y004647D01*
X018592Y004734D01*
X018520Y004764D01*
X018566Y004811D01*
X018613Y004924D01*
X018613Y005047D01*
X018566Y005160D01*
X018480Y005247D01*
X018366Y005294D01*
X018244Y005294D01*
X018130Y005247D01*
X018044Y005160D01*
X017997Y005047D01*
X017997Y004974D01*
X017368Y004345D01*
X017245Y004222D01*
X017245Y002897D01*
X016958Y002610D01*
X004602Y002610D01*
X004729Y002738D01*
X014454Y002738D01*
X018092Y006375D01*
X018215Y006498D01*
X018215Y006809D01*
X018266Y006861D01*
X018313Y006974D01*
X018313Y007097D01*
X018266Y007210D01*
X018180Y007297D01*
X018066Y007344D01*
X017944Y007344D01*
X017830Y007297D01*
X017744Y007210D01*
X017697Y007097D01*
X017697Y006974D01*
X017744Y006861D01*
X017795Y006809D01*
X017795Y006672D01*
X014281Y003158D01*
X004556Y003158D01*
X004433Y003035D01*
X004008Y002610D01*
X003430Y002610D01*
X003180Y002360D01*
X003180Y001635D01*
X003037Y001635D01*
X003061Y001660D01*
X003108Y001723D01*
X003143Y001793D01*
X003168Y001868D01*
X003178Y001935D01*
X003169Y001879D02*
X003180Y001879D01*
X003180Y001781D02*
X003137Y001781D01*
X003180Y001682D02*
X003078Y001682D01*
X003172Y002076D02*
X003180Y002076D01*
X003180Y002175D02*
X003144Y002175D01*
X003180Y002273D02*
X003089Y002273D01*
X002999Y002372D02*
X003192Y002372D01*
X003290Y002470D02*
X002805Y002470D01*
X002730Y002470D02*
X002630Y002470D01*
X002630Y002484D02*
X002563Y002473D01*
X002488Y002449D01*
X002418Y002413D01*
X002354Y002367D01*
X002299Y002311D01*
X002252Y002247D01*
X002217Y002177D01*
X002192Y002102D01*
X002182Y002035D01*
X002630Y002035D01*
X002630Y002484D01*
X002555Y002470D02*
X001830Y002470D01*
X001830Y002372D02*
X002361Y002372D01*
X002271Y002273D02*
X001830Y002273D01*
X001830Y002175D02*
X002216Y002175D01*
X002188Y002076D02*
X001830Y002076D01*
X001830Y001978D02*
X002630Y001978D01*
X002630Y002076D02*
X002730Y002076D01*
X002730Y002175D02*
X002630Y002175D01*
X002630Y002273D02*
X002730Y002273D01*
X002730Y002372D02*
X002630Y002372D01*
X003389Y002569D02*
X001830Y002569D01*
X001830Y002667D02*
X004065Y002667D01*
X004164Y002766D02*
X001830Y002766D01*
X001830Y002864D02*
X004262Y002864D01*
X004361Y002963D02*
X001830Y002963D01*
X001830Y003061D02*
X004459Y003061D01*
X004659Y002667D02*
X017015Y002667D01*
X017114Y002766D02*
X014482Y002766D01*
X014581Y002864D02*
X017212Y002864D01*
X017245Y002963D02*
X014679Y002963D01*
X014778Y003061D02*
X017245Y003061D01*
X017245Y003160D02*
X014876Y003160D01*
X014975Y003258D02*
X017245Y003258D01*
X017245Y003357D02*
X015073Y003357D01*
X015172Y003455D02*
X017245Y003455D01*
X017245Y003554D02*
X015270Y003554D01*
X015369Y003652D02*
X017245Y003652D01*
X017245Y003751D02*
X015467Y003751D01*
X015566Y003849D02*
X017245Y003849D01*
X017245Y003948D02*
X015664Y003948D01*
X015763Y004046D02*
X017245Y004046D01*
X017245Y004145D02*
X015861Y004145D01*
X015960Y004243D02*
X017266Y004243D01*
X017365Y004342D02*
X016058Y004342D01*
X016157Y004440D02*
X017463Y004440D01*
X017562Y004539D02*
X016255Y004539D01*
X016354Y004637D02*
X017660Y004637D01*
X017759Y004736D02*
X016452Y004736D01*
X016551Y004834D02*
X017857Y004834D01*
X017956Y004933D02*
X016649Y004933D01*
X016748Y005031D02*
X017997Y005031D01*
X018031Y005130D02*
X017898Y005130D01*
X017891Y005127D02*
X018005Y005174D01*
X018091Y005261D01*
X018138Y005374D01*
X018138Y005422D01*
X018757Y005950D01*
X018767Y005950D01*
X018823Y006006D01*
X018882Y006057D01*
X018883Y006067D01*
X019092Y006275D01*
X020496Y006273D01*
X020459Y006184D01*
X020459Y006061D01*
X020506Y005948D01*
X020593Y005861D01*
X020706Y005814D01*
X020829Y005814D01*
X020942Y005861D01*
X021016Y005935D01*
X023922Y005935D01*
X025343Y004515D01*
X025343Y004284D01*
X025281Y004222D01*
X025234Y004109D01*
X025234Y003986D01*
X025281Y003873D01*
X025368Y003786D01*
X025481Y003739D01*
X025604Y003739D01*
X025717Y003786D01*
X025804Y003873D01*
X025851Y003986D01*
X025851Y004109D01*
X025804Y004222D01*
X025742Y004284D01*
X025742Y004681D01*
X025625Y004798D01*
X024155Y006268D01*
X027441Y006263D01*
X027493Y006211D01*
X027606Y006164D01*
X027729Y006164D01*
X027842Y006211D01*
X027929Y006298D01*
X027976Y006411D01*
X027976Y006532D01*
X028319Y006188D01*
X028436Y006071D01*
X028838Y006071D01*
X028871Y006038D01*
X028972Y005996D01*
X029082Y005996D01*
X029183Y006038D01*
X029260Y006116D01*
X029302Y006217D01*
X029302Y006326D01*
X029260Y006427D01*
X029183Y006504D01*
X029082Y006546D01*
X028972Y006546D01*
X028871Y006504D01*
X028838Y006471D01*
X028602Y006471D01*
X027938Y007135D01*
X023577Y007135D01*
X022974Y008197D01*
X022980Y008211D01*
X022980Y008321D01*
X022938Y008422D01*
X022861Y008499D01*
X022760Y008541D01*
X022651Y008541D01*
X022550Y008499D01*
X022472Y008422D01*
X022430Y008321D01*
X022430Y008211D01*
X022472Y008110D01*
X022550Y008033D01*
X022626Y008001D01*
X023269Y006868D01*
X023269Y006838D01*
X023308Y006799D01*
X023336Y006750D01*
X023365Y006743D01*
X023386Y006721D01*
X023442Y006721D01*
X023496Y006706D01*
X023522Y006721D01*
X023552Y006721D01*
X023566Y006735D01*
X027495Y006735D01*
X027493Y006734D01*
X027442Y006683D01*
X019092Y006695D01*
X019092Y006695D01*
X019005Y006695D01*
X018918Y006695D01*
X018857Y006634D01*
X018795Y006573D01*
X018795Y006572D01*
X018537Y006315D01*
X017868Y005744D01*
X017769Y005744D01*
X017655Y005697D01*
X017569Y005610D01*
X017522Y005497D01*
X017522Y005374D01*
X017569Y005261D01*
X017655Y005174D01*
X017769Y005127D01*
X017891Y005127D01*
X017762Y005130D02*
X016846Y005130D01*
X016945Y005228D02*
X017601Y005228D01*
X017541Y005327D02*
X017043Y005327D01*
X017142Y005425D02*
X017522Y005425D01*
X017533Y005524D02*
X017240Y005524D01*
X017339Y005622D02*
X017581Y005622D01*
X017713Y005721D02*
X017437Y005721D01*
X017536Y005819D02*
X017957Y005819D01*
X018072Y005918D02*
X017634Y005918D01*
X017733Y006016D02*
X018188Y006016D01*
X018303Y006115D02*
X017831Y006115D01*
X017930Y006213D02*
X018419Y006213D01*
X018534Y006312D02*
X018028Y006312D01*
X018127Y006410D02*
X018633Y006410D01*
X018732Y006509D02*
X018215Y006509D01*
X018215Y006607D02*
X018830Y006607D01*
X018918Y006695D02*
X018918Y006695D01*
X018918Y006695D01*
X018284Y006903D02*
X023249Y006903D01*
X023303Y006804D02*
X018215Y006804D01*
X018215Y006706D02*
X027464Y006706D01*
X027855Y006935D02*
X028519Y006271D01*
X029027Y006271D01*
X029267Y006410D02*
X031030Y006410D01*
X031030Y006312D02*
X029302Y006312D01*
X029301Y006213D02*
X031030Y006213D01*
X031030Y006115D02*
X029260Y006115D01*
X029130Y006016D02*
X031030Y006016D01*
X031030Y005918D02*
X024505Y005918D01*
X024407Y006016D02*
X028924Y006016D01*
X028393Y006115D02*
X024308Y006115D01*
X024210Y006213D02*
X027491Y006213D01*
X027844Y006213D02*
X028294Y006213D01*
X028196Y006312D02*
X027935Y006312D01*
X027975Y006410D02*
X028097Y006410D01*
X027999Y006509D02*
X027976Y006509D01*
X028367Y006706D02*
X031030Y006706D01*
X031030Y006804D02*
X028269Y006804D01*
X028170Y006903D02*
X031030Y006903D01*
X031030Y007001D02*
X028072Y007001D01*
X027973Y007100D02*
X031030Y007100D01*
X031030Y007198D02*
X023542Y007198D01*
X023486Y007297D02*
X031030Y007297D01*
X031030Y007395D02*
X030639Y007395D01*
X030600Y007356D02*
X030684Y007440D01*
X030730Y007551D01*
X030730Y007670D01*
X030684Y007780D01*
X030600Y007865D01*
X030490Y007910D01*
X030370Y007910D01*
X030260Y007865D01*
X030176Y007780D01*
X030130Y007670D01*
X030130Y007551D01*
X030176Y007440D01*
X030260Y007356D01*
X030370Y007310D01*
X030490Y007310D01*
X030600Y007356D01*
X030706Y007494D02*
X031030Y007494D01*
X031030Y007592D02*
X030730Y007592D01*
X030721Y007691D02*
X031030Y007691D01*
X031030Y007789D02*
X030675Y007789D01*
X030544Y007888D02*
X031030Y007888D01*
X031030Y007986D02*
X023094Y007986D01*
X023150Y007888D02*
X030316Y007888D01*
X030185Y007789D02*
X023206Y007789D01*
X023262Y007691D02*
X030139Y007691D01*
X030130Y007592D02*
X023318Y007592D01*
X023374Y007494D02*
X030154Y007494D01*
X030221Y007395D02*
X023430Y007395D01*
X023082Y007198D02*
X018271Y007198D01*
X018312Y007100D02*
X023138Y007100D01*
X023194Y007001D02*
X018313Y007001D01*
X017795Y006804D02*
X009936Y006804D01*
X009838Y006903D02*
X017726Y006903D01*
X017697Y007001D02*
X009739Y007001D01*
X009641Y007100D02*
X017698Y007100D01*
X017739Y007198D02*
X015143Y007198D01*
X015214Y007297D02*
X017830Y007297D01*
X018180Y007297D02*
X023026Y007297D01*
X022970Y007395D02*
X015241Y007395D01*
X015237Y007494D02*
X022914Y007494D01*
X022858Y007592D02*
X015196Y007592D01*
X015093Y007691D02*
X022802Y007691D01*
X022746Y007789D02*
X009647Y007789D01*
X009746Y007691D02*
X014772Y007691D01*
X013934Y008183D02*
X022442Y008183D01*
X022430Y008282D02*
X014043Y008282D01*
X014084Y008380D02*
X022455Y008380D01*
X022529Y008479D02*
X014089Y008479D01*
X014063Y008577D02*
X031030Y008577D01*
X031030Y008479D02*
X022881Y008479D01*
X022956Y008380D02*
X031030Y008380D01*
X031030Y008282D02*
X022980Y008282D01*
X022982Y008183D02*
X031030Y008183D01*
X031030Y008085D02*
X023038Y008085D01*
X022705Y008266D02*
X023469Y006921D01*
X023483Y006935D01*
X027855Y006935D01*
X028466Y006607D02*
X031030Y006607D01*
X031030Y006509D02*
X029172Y006509D01*
X028882Y006509D02*
X028564Y006509D01*
X030176Y005530D02*
X030260Y005615D01*
X030370Y005660D01*
X030490Y005660D01*
X030600Y005615D01*
X030684Y005530D01*
X030730Y005420D01*
X030730Y005301D01*
X030684Y005190D01*
X030600Y005106D01*
X030490Y005060D01*
X030370Y005060D01*
X030260Y005106D01*
X030176Y005190D01*
X030130Y005301D01*
X030130Y005420D01*
X030176Y005530D01*
X030173Y005524D02*
X024899Y005524D01*
X024801Y005622D02*
X030279Y005622D01*
X030581Y005622D02*
X031030Y005622D01*
X031030Y005524D02*
X030687Y005524D01*
X030728Y005425D02*
X031030Y005425D01*
X031030Y005327D02*
X030730Y005327D01*
X030700Y005228D02*
X031030Y005228D01*
X031030Y005130D02*
X030624Y005130D01*
X030236Y005130D02*
X027832Y005130D01*
X027703Y005130D02*
X025293Y005130D01*
X025195Y005228D02*
X030160Y005228D01*
X030130Y005327D02*
X025096Y005327D01*
X024998Y005425D02*
X030132Y005425D01*
X031030Y005721D02*
X024702Y005721D01*
X024604Y005819D02*
X031030Y005819D01*
X031030Y005031D02*
X027995Y005031D01*
X028056Y004933D02*
X031030Y004933D01*
X031030Y004834D02*
X028076Y004834D01*
X028065Y004736D02*
X031030Y004736D01*
X031030Y004637D02*
X028018Y004637D01*
X027888Y004539D02*
X031030Y004539D01*
X031030Y004440D02*
X027682Y004440D01*
X027583Y004342D02*
X031030Y004342D01*
X031030Y004243D02*
X027485Y004243D01*
X027386Y004145D02*
X031030Y004145D01*
X031030Y004046D02*
X027288Y004046D01*
X027189Y003948D02*
X031030Y003948D01*
X031030Y003849D02*
X027091Y003849D01*
X026992Y003751D02*
X031030Y003751D01*
X031030Y003652D02*
X026894Y003652D01*
X026795Y003554D02*
X031030Y003554D01*
X031030Y003455D02*
X026697Y003455D01*
X026598Y003357D02*
X031030Y003357D01*
X031030Y003258D02*
X026500Y003258D01*
X025902Y003160D02*
X031030Y003160D01*
X031030Y003061D02*
X026001Y003061D01*
X026099Y002963D02*
X031030Y002963D01*
X031030Y002864D02*
X026198Y002864D01*
X026296Y002766D02*
X031030Y002766D01*
X031030Y002667D02*
X026395Y002667D01*
X026399Y003751D02*
X025631Y003751D01*
X025454Y003751D02*
X024260Y003751D01*
X024050Y003751D02*
X023661Y003751D01*
X023563Y003849D02*
X025305Y003849D01*
X025250Y003948D02*
X023464Y003948D01*
X023366Y004046D02*
X025234Y004046D01*
X025249Y004145D02*
X023267Y004145D01*
X023169Y004243D02*
X025302Y004243D01*
X025343Y004342D02*
X023070Y004342D01*
X022972Y004440D02*
X025343Y004440D01*
X025319Y004539D02*
X022873Y004539D01*
X022775Y004637D02*
X025220Y004637D01*
X025122Y004736D02*
X022676Y004736D01*
X021308Y004834D02*
X025023Y004834D01*
X024925Y004933D02*
X021284Y004933D01*
X021223Y005031D02*
X024826Y005031D01*
X024728Y005130D02*
X021066Y005130D01*
X020894Y005130D02*
X020496Y005130D01*
X020396Y005228D02*
X024629Y005228D01*
X024531Y005327D02*
X020296Y005327D01*
X020195Y005425D02*
X024432Y005425D01*
X024334Y005524D02*
X020095Y005524D01*
X019995Y005622D02*
X024235Y005622D01*
X024137Y005721D02*
X019895Y005721D01*
X019858Y005819D02*
X020694Y005819D01*
X020841Y005819D02*
X024038Y005819D01*
X023940Y005918D02*
X020999Y005918D01*
X020868Y006135D02*
X020768Y006123D01*
X020868Y006135D02*
X024005Y006135D01*
X025543Y004598D01*
X025543Y004048D01*
X025851Y004046D02*
X026694Y004046D01*
X026596Y003948D02*
X025835Y003948D01*
X025780Y003849D02*
X026497Y003849D01*
X026793Y004145D02*
X025836Y004145D01*
X025783Y004243D02*
X026891Y004243D01*
X026990Y004342D02*
X025742Y004342D01*
X025742Y004440D02*
X027088Y004440D01*
X027187Y004539D02*
X025742Y004539D01*
X025742Y004637D02*
X027285Y004637D01*
X027384Y004736D02*
X025687Y004736D01*
X025589Y004834D02*
X027459Y004834D01*
X027479Y004933D02*
X025490Y004933D01*
X025392Y005031D02*
X027540Y005031D01*
X023911Y003652D02*
X023760Y003652D01*
X023858Y003554D02*
X023860Y003554D01*
X020737Y005031D02*
X020596Y005031D01*
X018976Y005327D02*
X018119Y005327D01*
X018112Y005228D02*
X018059Y005228D01*
X018142Y005425D02*
X018947Y005425D01*
X018947Y005524D02*
X018257Y005524D01*
X018373Y005622D02*
X018988Y005622D01*
X019079Y005721D02*
X018488Y005721D01*
X018604Y005819D02*
X019202Y005819D01*
X019230Y005918D02*
X018719Y005918D01*
X018835Y006016D02*
X019297Y006016D01*
X019763Y006016D02*
X020478Y006016D01*
X020459Y006115D02*
X018931Y006115D01*
X019030Y006213D02*
X020471Y006213D01*
X020536Y005918D02*
X019830Y005918D01*
X018956Y005228D02*
X018498Y005228D01*
X018579Y005130D02*
X018813Y005130D01*
X018761Y005031D02*
X018613Y005031D01*
X018613Y004933D02*
X018747Y004933D01*
X018763Y004834D02*
X018576Y004834D01*
X018588Y004736D02*
X018818Y004736D01*
X018759Y004637D02*
X018683Y004637D01*
X018726Y004413D02*
X018769Y004311D01*
X018835Y004244D01*
X018845Y004080D01*
X018844Y004002D01*
X018850Y003995D01*
X018851Y003985D01*
X018910Y003933D01*
X019203Y003630D01*
X019186Y003538D01*
X019170Y003522D01*
X019170Y003455D01*
X019157Y003389D01*
X019170Y003371D01*
X019170Y003348D01*
X019217Y003301D01*
X019255Y003245D01*
X019277Y003241D01*
X019427Y003092D01*
X019427Y003082D01*
X019487Y003031D01*
X019543Y002975D01*
X019552Y002975D01*
X019559Y002969D01*
X019638Y002975D01*
X019717Y002975D01*
X019719Y002977D01*
X020103Y002610D01*
X017905Y002610D01*
X017905Y003852D01*
X018258Y004205D01*
X018356Y004164D01*
X018479Y004164D01*
X018592Y004211D01*
X018679Y004298D01*
X018726Y004411D01*
X018726Y004413D01*
X018697Y004342D02*
X018756Y004342D01*
X018835Y004243D02*
X018624Y004243D01*
X018841Y004145D02*
X018197Y004145D01*
X018099Y004046D02*
X018844Y004046D01*
X018893Y003948D02*
X018000Y003948D01*
X017905Y003849D02*
X018991Y003849D01*
X019086Y003751D02*
X017905Y003751D01*
X017905Y003652D02*
X019182Y003652D01*
X019189Y003554D02*
X017905Y003554D01*
X017905Y003455D02*
X019170Y003455D01*
X019170Y003357D02*
X017905Y003357D01*
X017905Y003258D02*
X019246Y003258D01*
X019359Y003160D02*
X017905Y003160D01*
X017905Y003061D02*
X019452Y003061D01*
X019734Y002963D02*
X017905Y002963D01*
X017905Y002864D02*
X019837Y002864D01*
X019940Y002766D02*
X017905Y002766D01*
X017905Y002667D02*
X020043Y002667D01*
X017705Y002085D02*
X017705Y003935D01*
X018255Y004485D01*
X018418Y004473D01*
X016548Y005425D02*
X005343Y005425D01*
X005316Y005414D02*
X005430Y005461D01*
X005516Y005548D01*
X005563Y005661D01*
X005563Y005784D01*
X005516Y005897D01*
X005430Y005984D01*
X005316Y006031D01*
X005194Y006031D01*
X005080Y005984D01*
X004994Y005897D01*
X004947Y005784D01*
X004947Y005661D01*
X004994Y005548D01*
X005080Y005461D01*
X005194Y005414D01*
X005316Y005414D01*
X005167Y005425D02*
X001830Y005425D01*
X001830Y005327D02*
X016450Y005327D01*
X016351Y005228D02*
X001830Y005228D01*
X001830Y005130D02*
X016253Y005130D01*
X016154Y005031D02*
X001830Y005031D01*
X001830Y004933D02*
X016056Y004933D01*
X015957Y004834D02*
X001830Y004834D01*
X001830Y004736D02*
X015859Y004736D01*
X015760Y004637D02*
X001830Y004637D01*
X001830Y004539D02*
X015662Y004539D01*
X015563Y004440D02*
X001830Y004440D01*
X001830Y004342D02*
X015465Y004342D01*
X015366Y004243D02*
X001830Y004243D01*
X001830Y004145D02*
X015268Y004145D01*
X015169Y004046D02*
X001830Y004046D01*
X001830Y003948D02*
X015071Y003948D01*
X014972Y003849D02*
X001830Y003849D01*
X001830Y003751D02*
X014874Y003751D01*
X014775Y003652D02*
X001830Y003652D01*
X001830Y003554D02*
X014677Y003554D01*
X014578Y003455D02*
X001830Y003455D01*
X001830Y003357D02*
X014480Y003357D01*
X014381Y003258D02*
X001830Y003258D01*
X001830Y003160D02*
X014283Y003160D01*
X017680Y002085D02*
X017705Y002085D01*
X016647Y005524D02*
X005492Y005524D01*
X005547Y005622D02*
X016745Y005622D01*
X016844Y005721D02*
X005563Y005721D01*
X005549Y005819D02*
X016942Y005819D01*
X017041Y005918D02*
X005496Y005918D01*
X005352Y006016D02*
X017139Y006016D01*
X017238Y006115D02*
X001830Y006115D01*
X001830Y006213D02*
X017118Y006213D01*
X017242Y006213D02*
X017336Y006213D01*
X017395Y006312D02*
X017435Y006312D01*
X017447Y006410D02*
X017533Y006410D01*
X017455Y006509D02*
X017632Y006509D01*
X017730Y006607D02*
X017427Y006607D01*
X017348Y006706D02*
X017795Y006706D01*
X013626Y008183D02*
X009253Y008183D01*
X009352Y008085D02*
X022498Y008085D01*
X022634Y007986D02*
X009450Y007986D01*
X009549Y007888D02*
X022690Y007888D01*
X030019Y010449D02*
X031030Y010449D01*
X031030Y010547D02*
X030922Y010547D01*
X030730Y010547D02*
X030630Y010547D01*
X030630Y010487D02*
X030630Y010935D01*
X030182Y010935D01*
X030192Y010868D01*
X030217Y010793D01*
X030252Y010723D01*
X030299Y010660D01*
X030354Y010604D01*
X030418Y010558D01*
X030488Y010522D01*
X030563Y010498D01*
X030630Y010487D01*
X030630Y010646D02*
X030730Y010646D01*
X030730Y010744D02*
X030630Y010744D01*
X030630Y010843D02*
X030730Y010843D01*
X030630Y010941D02*
X030180Y010941D01*
X030180Y010843D02*
X030201Y010843D01*
X030180Y010744D02*
X030242Y010744D01*
X030180Y010646D02*
X030312Y010646D01*
X030438Y010547D02*
X030117Y010547D01*
X030180Y011040D02*
X030182Y011040D01*
X030180Y011138D02*
X030204Y011138D01*
X030180Y011237D02*
X030247Y011237D01*
X031030Y010350D02*
X008274Y010350D01*
X008373Y010252D02*
X031030Y010252D01*
X031030Y010153D02*
X008471Y010153D01*
X008570Y010055D02*
X031030Y010055D01*
X031030Y009956D02*
X008668Y009956D01*
X008767Y009858D02*
X031030Y009858D01*
X031030Y009759D02*
X008865Y009759D01*
X008964Y009661D02*
X031030Y009661D01*
X031030Y009562D02*
X009062Y009562D01*
X009161Y009464D02*
X031030Y009464D01*
X031030Y009365D02*
X009259Y009365D01*
X009358Y009267D02*
X031030Y009267D01*
X031030Y009168D02*
X009456Y009168D01*
X009555Y009070D02*
X013054Y009070D01*
X013231Y009070D02*
X031030Y009070D01*
X031030Y008971D02*
X013380Y008971D01*
X013435Y008873D02*
X031030Y008873D01*
X031030Y008774D02*
X013451Y008774D01*
X013436Y008676D02*
X013566Y008676D01*
X013994Y008676D02*
X031030Y008676D01*
X031030Y002569D02*
X029971Y002569D01*
X030070Y002470D02*
X030555Y002470D01*
X030563Y002473D02*
X030488Y002449D01*
X030418Y002413D01*
X030354Y002367D01*
X030299Y002311D01*
X030252Y002247D01*
X030217Y002177D01*
X030192Y002102D01*
X030182Y002035D01*
X030630Y002035D01*
X030630Y002484D01*
X030563Y002473D01*
X030630Y002470D02*
X030730Y002470D01*
X030805Y002470D02*
X031030Y002470D01*
X031030Y002372D02*
X030999Y002372D01*
X030730Y002372D02*
X030630Y002372D01*
X030630Y002273D02*
X030730Y002273D01*
X030730Y002175D02*
X030630Y002175D01*
X030630Y002076D02*
X030730Y002076D01*
X030630Y001978D02*
X030180Y001978D01*
X030180Y002076D02*
X030188Y002076D01*
X030180Y002175D02*
X030216Y002175D01*
X030180Y002273D02*
X030271Y002273D01*
X030361Y002372D02*
X030168Y002372D01*
X030180Y001879D02*
X030191Y001879D01*
X030180Y001781D02*
X030223Y001781D01*
X030180Y001682D02*
X030282Y001682D01*
X009778Y006312D02*
X001830Y006312D01*
X001830Y006410D02*
X009680Y006410D01*
X009581Y006509D02*
X001830Y006509D01*
X001830Y006607D02*
X009483Y006607D01*
X009384Y006706D02*
X001830Y006706D01*
X001830Y006804D02*
X002484Y006804D01*
X002421Y006903D02*
X001830Y006903D01*
X001830Y007001D02*
X002405Y007001D01*
X002425Y007100D02*
X001830Y007100D01*
X001830Y007198D02*
X002430Y007198D01*
X002430Y007297D02*
X001830Y007297D01*
X001830Y007395D02*
X002430Y007395D01*
X002430Y007494D02*
X001830Y007494D01*
X001830Y007592D02*
X002430Y007592D01*
X002430Y007691D02*
X001830Y007691D01*
X001830Y007789D02*
X002430Y007789D01*
X002430Y007888D02*
X001830Y007888D01*
X001830Y007986D02*
X002430Y007986D01*
X002430Y008085D02*
X001830Y008085D01*
X001830Y008183D02*
X002430Y008183D01*
X002430Y008282D02*
X001830Y008282D01*
X001830Y008380D02*
X002430Y008380D01*
X002430Y008479D02*
X001830Y008479D01*
X001830Y008577D02*
X002430Y008577D01*
X002166Y008676D02*
X001830Y008676D01*
X001830Y008774D02*
X002015Y008774D01*
X001937Y008873D02*
X001830Y008873D01*
X001830Y008971D02*
X001896Y008971D01*
X001883Y009070D02*
X001830Y009070D01*
X001830Y009168D02*
X001883Y009168D01*
X001919Y009267D02*
X001830Y009267D01*
X001830Y009365D02*
X001972Y009365D01*
X002070Y009464D02*
X001830Y009464D01*
X001830Y009562D02*
X002015Y009562D01*
X001937Y009661D02*
X001830Y009661D01*
X001830Y009759D02*
X001896Y009759D01*
X001883Y009858D02*
X001830Y009858D01*
X001830Y009956D02*
X001883Y009956D01*
X001919Y010055D02*
X001830Y010055D01*
X001830Y010153D02*
X001972Y010153D01*
X002071Y010252D02*
X001830Y010252D01*
X001830Y010350D02*
X003086Y010350D01*
X003184Y010449D02*
X001830Y010449D01*
X001830Y010547D02*
X002438Y010547D01*
X002418Y010558D02*
X002488Y010522D01*
X002563Y010498D01*
X002630Y010487D01*
X002630Y010935D01*
X002182Y010935D01*
X002192Y010868D01*
X002217Y010793D01*
X002252Y010723D01*
X002299Y010660D01*
X002354Y010604D01*
X002418Y010558D01*
X002312Y010646D02*
X001830Y010646D01*
X001830Y010744D02*
X002242Y010744D01*
X002201Y010843D02*
X001830Y010843D01*
X001830Y010941D02*
X002630Y010941D01*
X002630Y010843D02*
X002730Y010843D01*
X002730Y010941D02*
X003180Y010941D01*
X003180Y010843D02*
X003159Y010843D01*
X003180Y010744D02*
X003118Y010744D01*
X003180Y010646D02*
X003048Y010646D01*
X002922Y010547D02*
X003243Y010547D01*
X002921Y010252D02*
X002589Y010252D01*
X002688Y010153D02*
X002822Y010153D01*
X002769Y010055D02*
X002741Y010055D01*
X003496Y010195D02*
X003905Y009785D01*
X006080Y009785D01*
X006326Y009661D02*
X006429Y009661D01*
X006382Y009562D02*
X006246Y009562D01*
X006283Y009464D02*
X003440Y009464D01*
X003495Y009562D02*
X005914Y009562D01*
X006185Y009365D02*
X003538Y009365D01*
X003591Y009267D02*
X006086Y009267D01*
X005959Y009168D02*
X003627Y009168D01*
X003627Y009070D02*
X005826Y009070D01*
X005783Y008971D02*
X003614Y008971D01*
X003573Y008873D02*
X005780Y008873D01*
X005814Y008774D02*
X003495Y008774D01*
X003344Y008676D02*
X005902Y008676D01*
X006208Y008676D02*
X007414Y008676D01*
X007316Y008774D02*
X006296Y008774D01*
X006343Y008873D02*
X007217Y008873D01*
X007119Y008971D02*
X006441Y008971D01*
X006540Y009070D02*
X007020Y009070D01*
X006922Y009168D02*
X006638Y009168D01*
X006737Y009267D02*
X006823Y009267D01*
X007178Y009562D02*
X007280Y009562D01*
X007277Y009464D02*
X007379Y009464D01*
X007375Y009365D02*
X007477Y009365D01*
X007474Y009267D02*
X007576Y009267D01*
X007572Y009168D02*
X007674Y009168D01*
X007671Y009070D02*
X007773Y009070D01*
X007769Y008971D02*
X007871Y008971D01*
X007868Y008873D02*
X007970Y008873D01*
X007966Y008774D02*
X008068Y008774D01*
X008065Y008676D02*
X008167Y008676D01*
X008163Y008577D02*
X008265Y008577D01*
X008262Y008479D02*
X008364Y008479D01*
X008360Y008380D02*
X008462Y008380D01*
X008459Y008282D02*
X008561Y008282D01*
X008557Y008183D02*
X008659Y008183D01*
X008656Y008085D02*
X008758Y008085D01*
X008754Y007986D02*
X008856Y007986D01*
X008853Y007888D02*
X008955Y007888D01*
X008951Y007789D02*
X009053Y007789D01*
X009050Y007691D02*
X009152Y007691D01*
X009148Y007592D02*
X009250Y007592D01*
X009247Y007494D02*
X009349Y007494D01*
X009345Y007395D02*
X009447Y007395D01*
X009444Y007297D02*
X009546Y007297D01*
X009542Y007198D02*
X009644Y007198D01*
X009187Y006903D02*
X002939Y006903D01*
X002955Y007001D02*
X009089Y007001D01*
X008990Y007100D02*
X002935Y007100D01*
X002930Y007198D02*
X008892Y007198D01*
X008793Y007297D02*
X002930Y007297D01*
X002930Y007395D02*
X008695Y007395D01*
X008596Y007494D02*
X002930Y007494D01*
X002930Y007592D02*
X008498Y007592D01*
X008399Y007691D02*
X002930Y007691D01*
X002930Y007789D02*
X008301Y007789D01*
X008202Y007888D02*
X002930Y007888D01*
X002930Y007986D02*
X008104Y007986D01*
X008005Y008085D02*
X002930Y008085D01*
X002930Y008183D02*
X007907Y008183D01*
X007808Y008282D02*
X002930Y008282D01*
X002930Y008380D02*
X007710Y008380D01*
X007611Y008479D02*
X002930Y008479D01*
X003019Y008577D02*
X007513Y008577D01*
X007182Y009661D02*
X007080Y009661D01*
X007035Y009706D02*
X007035Y009706D01*
X007083Y009759D02*
X006981Y009759D01*
X006985Y009858D02*
X006883Y009858D01*
X006886Y009956D02*
X006784Y009956D01*
X003747Y009661D02*
X003573Y009661D01*
X003626Y009759D02*
X003648Y009759D01*
X002730Y010547D02*
X002630Y010547D01*
X002630Y010646D02*
X002730Y010646D01*
X002730Y010744D02*
X002630Y010744D01*
X002182Y011040D02*
X001830Y011040D01*
X001830Y011138D02*
X002204Y011138D01*
X002247Y011237D02*
X001830Y011237D01*
X003113Y011237D02*
X003180Y011237D01*
X003180Y011138D02*
X003156Y011138D01*
X003178Y011040D02*
X003180Y011040D01*
X002876Y006804D02*
X009286Y006804D01*
X005158Y006016D02*
X001830Y006016D01*
X001830Y005918D02*
X005014Y005918D01*
X004961Y005819D02*
X001830Y005819D01*
X001830Y005721D02*
X004947Y005721D01*
X004963Y005622D02*
X001830Y005622D01*
X001830Y005524D02*
X005018Y005524D01*
X002191Y001879D02*
X001830Y001879D01*
X001830Y001781D02*
X002223Y001781D01*
X002282Y001682D02*
X001830Y001682D01*
D14*
X005286Y004435D03*
X004949Y004560D03*
X004674Y004748D03*
X005299Y005010D03*
X005911Y004760D03*
X005661Y004523D03*
X005555Y005367D03*
X004968Y005335D03*
X002680Y006997D03*
X004105Y007610D03*
X004105Y008885D03*
X006055Y008910D03*
X007430Y008385D03*
X010280Y007935D03*
X011705Y008085D03*
X014305Y006810D03*
X014305Y006160D03*
X014305Y005560D03*
X017180Y006485D03*
X019957Y005958D03*
X022102Y006892D03*
X023119Y005808D03*
X026293Y005523D03*
X029027Y006271D03*
X025905Y007598D03*
X023480Y008728D03*
X022705Y008266D03*
X019467Y007932D03*
X017880Y009810D03*
X009380Y009685D03*
X006080Y009785D03*
X019043Y003435D03*
X018205Y002748D03*
X016968Y003135D03*
X016543Y002785D03*
X020380Y004185D03*
X021530Y003773D03*
X024674Y003921D03*
D15*
X003180Y009092D02*
X002680Y008592D01*
X002680Y006997D01*
D16*
X003180Y009879D02*
X003496Y010195D01*
X003680Y010379D01*
X003680Y010985D01*
D17*
X004680Y010985D02*
X005530Y010135D01*
X006280Y010135D01*
X006805Y009610D01*
X006755Y009610D01*
X006055Y008910D01*
X006805Y009610D02*
X009930Y006485D01*
X017180Y006485D01*
D18*
X020380Y004185D02*
X020805Y003785D01*
X021530Y003773D01*
D19*
X019718Y003510D03*
X018418Y004473D03*
X019030Y004485D03*
X019055Y004935D03*
X019443Y005085D03*
X019255Y005460D03*
X018305Y004985D03*
X017830Y005435D03*
X020768Y006123D03*
X018005Y007035D03*
X014933Y007423D03*
X013780Y008453D03*
X013143Y008773D03*
X005255Y005723D03*
X024155Y003460D03*
X025543Y004048D03*
X027768Y004823D03*
X027668Y006473D03*
D20*
X019005Y006485D01*
X018680Y006160D01*
X017830Y005435D01*
X018305Y004985D02*
X017455Y004135D01*
X017455Y002810D01*
X016680Y002035D01*
X016680Y001985D01*
X017680Y001985D02*
X017680Y002085D01*
X019380Y003435D02*
X019630Y003185D01*
X019793Y003198D01*
X020668Y002360D01*
X020668Y001998D01*
X020680Y001985D01*
X020805Y002523D02*
X021130Y002510D01*
X021655Y001985D01*
X021680Y001985D01*
X021980Y002710D02*
X022682Y001984D01*
X022682Y001987D01*
X023630Y001960D02*
X023680Y001985D01*
X023630Y001960D02*
X022580Y003010D01*
X020955Y003010D01*
X019580Y004360D01*
X019493Y004960D01*
X019443Y005085D01*
X019705Y005310D02*
X019255Y005460D01*
X019705Y005310D02*
X020980Y004035D01*
X022093Y004035D01*
X023455Y002635D01*
X024080Y002635D01*
X024155Y002560D01*
X024680Y001985D01*
X024855Y002885D02*
X025680Y002060D01*
X025680Y001985D01*
X026680Y001985D02*
X026680Y002085D01*
X025655Y003110D01*
X024005Y003110D01*
X022555Y004560D01*
X021180Y004560D01*
X020980Y004810D01*
X021055Y004285D02*
X022455Y004298D01*
X023880Y002885D01*
X024855Y002885D01*
X024155Y003460D02*
X026405Y003460D01*
X027768Y004823D01*
X021980Y002710D02*
X020918Y002710D01*
X019355Y004298D01*
X019343Y004685D01*
X019055Y004935D01*
X019030Y004485D02*
X019055Y004085D01*
X019430Y003698D01*
X019380Y003435D01*
X019718Y003510D02*
X019830Y003498D01*
X020805Y002523D01*
X021055Y004285D02*
X019530Y005785D01*
X018005Y006585D02*
X018005Y007035D01*
X018005Y006585D02*
X014368Y002948D01*
X004643Y002948D01*
X003680Y001985D01*
X009736Y007404D02*
X006894Y010245D01*
X006523Y010245D01*
X005783Y010985D01*
X005680Y010985D01*
X006680Y010985D02*
X009212Y008453D01*
X013780Y008453D01*
X013143Y008773D02*
X013130Y008785D01*
X009543Y008785D01*
X007668Y010660D01*
X007668Y010985D01*
X009736Y007404D02*
X014913Y007404D01*
X014933Y007423D01*
D21*
X019530Y005785D03*
X020980Y004810D03*
M02*
