G75*
%MOIN*%
%OFA0B0*%
%FSLAX24Y24*%
%IPPOS*%
%LPD*%
%AMOC8*
5,1,8,0,0,1.08239X$1,22.5*
%
%ADD10C,0.0000*%
%ADD11C,0.0030*%
%ADD12R,0.0850X0.1625*%
%ADD13C,0.0080*%
%ADD14R,0.0156X0.0300*%
%ADD15C,0.0050*%
%ADD16C,0.0150*%
%ADD17C,0.0040*%
%ADD18C,0.0010*%
D10*
X001680Y001485D02*
X001680Y011485D01*
X031180Y011485D01*
X031180Y001485D01*
X001680Y001485D01*
X030280Y005360D02*
X030282Y005384D01*
X030288Y005408D01*
X030297Y005430D01*
X030310Y005450D01*
X030326Y005468D01*
X030345Y005483D01*
X030366Y005496D01*
X030388Y005504D01*
X030412Y005509D01*
X030436Y005510D01*
X030460Y005507D01*
X030483Y005500D01*
X030505Y005490D01*
X030525Y005476D01*
X030542Y005459D01*
X030557Y005440D01*
X030568Y005419D01*
X030576Y005396D01*
X030580Y005372D01*
X030580Y005348D01*
X030576Y005324D01*
X030568Y005301D01*
X030557Y005280D01*
X030542Y005261D01*
X030525Y005244D01*
X030505Y005230D01*
X030483Y005220D01*
X030460Y005213D01*
X030436Y005210D01*
X030412Y005211D01*
X030388Y005216D01*
X030366Y005224D01*
X030345Y005237D01*
X030326Y005252D01*
X030310Y005270D01*
X030297Y005290D01*
X030288Y005312D01*
X030282Y005336D01*
X030280Y005360D01*
X030280Y007610D02*
X030282Y007634D01*
X030288Y007658D01*
X030297Y007680D01*
X030310Y007700D01*
X030326Y007718D01*
X030345Y007733D01*
X030366Y007746D01*
X030388Y007754D01*
X030412Y007759D01*
X030436Y007760D01*
X030460Y007757D01*
X030483Y007750D01*
X030505Y007740D01*
X030525Y007726D01*
X030542Y007709D01*
X030557Y007690D01*
X030568Y007669D01*
X030576Y007646D01*
X030580Y007622D01*
X030580Y007598D01*
X030576Y007574D01*
X030568Y007551D01*
X030557Y007530D01*
X030542Y007511D01*
X030525Y007494D01*
X030505Y007480D01*
X030483Y007470D01*
X030460Y007463D01*
X030436Y007460D01*
X030412Y007461D01*
X030388Y007466D01*
X030366Y007474D01*
X030345Y007487D01*
X030326Y007502D01*
X030310Y007520D01*
X030297Y007540D01*
X030288Y007562D01*
X030282Y007586D01*
X030280Y007610D01*
D11*
X030185Y008725D02*
X030233Y008774D01*
X030233Y008967D01*
X030185Y009016D01*
X030088Y009016D01*
X030040Y008967D01*
X030040Y008774D01*
X030088Y008725D01*
X030185Y008725D01*
X030334Y008774D02*
X030383Y008725D01*
X030479Y008725D01*
X030528Y008774D01*
X030528Y008967D01*
X030479Y009016D01*
X030383Y009016D01*
X030334Y008967D01*
X030334Y008774D01*
X030726Y008725D02*
X030726Y009016D01*
X030822Y009016D02*
X030629Y009016D01*
X029938Y008967D02*
X029938Y008919D01*
X029890Y008870D01*
X029745Y008870D01*
X029745Y008725D02*
X029890Y008725D01*
X029938Y008774D01*
X029938Y008822D01*
X029890Y008870D01*
X029938Y008967D02*
X029890Y009016D01*
X029745Y009016D01*
X029745Y008725D01*
X029763Y009516D02*
X029763Y009661D01*
X029715Y009710D01*
X029618Y009710D01*
X029570Y009661D01*
X029570Y009516D01*
X029860Y009516D01*
X030570Y009565D02*
X030618Y009516D01*
X030812Y009516D01*
X030860Y009565D01*
X030860Y009661D01*
X030812Y009710D01*
X030715Y009710D01*
X030715Y009613D01*
X030618Y009710D02*
X030570Y009661D01*
X030570Y009565D01*
X030570Y009811D02*
X030860Y010004D01*
X030570Y010004D01*
X030570Y010106D02*
X030570Y010251D01*
X030618Y010299D01*
X030812Y010299D01*
X030860Y010251D01*
X030860Y010106D01*
X030570Y010106D01*
X030570Y009811D02*
X030860Y009811D01*
X029860Y009811D02*
X029667Y009811D01*
X029570Y009908D01*
X029667Y010004D01*
X029860Y010004D01*
X029812Y010106D02*
X029860Y010154D01*
X029860Y010251D01*
X029812Y010299D01*
X029763Y010299D01*
X029715Y010251D01*
X029715Y010202D01*
X029715Y010251D02*
X029667Y010299D01*
X029618Y010299D01*
X029570Y010251D01*
X029570Y010154D01*
X029618Y010106D01*
X029715Y010004D02*
X029715Y009811D01*
X028860Y009811D02*
X028667Y009811D01*
X028570Y009908D01*
X028667Y010004D01*
X028860Y010004D01*
X028715Y010004D02*
X028715Y009811D01*
X028715Y009710D02*
X028763Y009661D01*
X028763Y009516D01*
X028860Y009516D02*
X028570Y009516D01*
X028570Y009661D01*
X028618Y009710D01*
X028715Y009710D01*
X027860Y009811D02*
X027667Y009811D01*
X027570Y009908D01*
X027667Y010004D01*
X027860Y010004D01*
X027812Y010106D02*
X027860Y010154D01*
X027860Y010251D01*
X027812Y010299D01*
X027715Y010299D01*
X027667Y010251D01*
X027667Y010202D01*
X027715Y010106D01*
X027570Y010106D01*
X027570Y010299D01*
X027715Y010004D02*
X027715Y009811D01*
X027715Y009710D02*
X027763Y009661D01*
X027763Y009516D01*
X027860Y009516D02*
X027570Y009516D01*
X027570Y009661D01*
X027618Y009710D01*
X027715Y009710D01*
X026860Y009811D02*
X026667Y009811D01*
X026570Y009908D01*
X026667Y010004D01*
X026860Y010004D01*
X026812Y010106D02*
X026860Y010154D01*
X026860Y010251D01*
X026812Y010299D01*
X026763Y010299D01*
X026715Y010251D01*
X026715Y010106D01*
X026812Y010106D01*
X026715Y010106D02*
X026618Y010202D01*
X026570Y010299D01*
X026715Y010004D02*
X026715Y009811D01*
X026715Y009710D02*
X026763Y009661D01*
X026763Y009516D01*
X026860Y009516D02*
X026570Y009516D01*
X026570Y009661D01*
X026618Y009710D01*
X026715Y009710D01*
X025860Y009811D02*
X025667Y009811D01*
X025570Y009908D01*
X025667Y010004D01*
X025860Y010004D01*
X025860Y010106D02*
X025812Y010106D01*
X025618Y010299D01*
X025570Y010299D01*
X025570Y010106D01*
X025715Y010004D02*
X025715Y009811D01*
X025715Y009710D02*
X025763Y009661D01*
X025763Y009516D01*
X025860Y009516D02*
X025570Y009516D01*
X025570Y009661D01*
X025618Y009710D01*
X025715Y009710D01*
X024860Y009859D02*
X024860Y009956D01*
X024812Y010004D01*
X024715Y010106D02*
X024715Y010299D01*
X024860Y010251D02*
X024570Y010251D01*
X024715Y010106D01*
X024618Y010004D02*
X024570Y009956D01*
X024570Y009859D01*
X024618Y009811D01*
X024812Y009811D01*
X024860Y009859D01*
X024715Y009710D02*
X024618Y009710D01*
X024570Y009661D01*
X024570Y009516D01*
X024860Y009516D01*
X024763Y009516D02*
X024763Y009661D01*
X024715Y009710D01*
X023860Y009859D02*
X023860Y009956D01*
X023812Y010004D01*
X023812Y010106D02*
X023860Y010154D01*
X023860Y010251D01*
X023812Y010299D01*
X023715Y010299D01*
X023667Y010251D01*
X023667Y010202D01*
X023715Y010106D01*
X023570Y010106D01*
X023570Y010299D01*
X023618Y010004D02*
X023570Y009956D01*
X023570Y009859D01*
X023618Y009811D01*
X023812Y009811D01*
X023860Y009859D01*
X023715Y009710D02*
X023618Y009710D01*
X023570Y009661D01*
X023570Y009516D01*
X023860Y009516D01*
X023763Y009516D02*
X023763Y009661D01*
X023715Y009710D01*
X022860Y009811D02*
X022860Y009956D01*
X022812Y010004D01*
X022763Y010004D01*
X022715Y009956D01*
X022715Y009811D01*
X022715Y009710D02*
X022763Y009661D01*
X022763Y009516D01*
X022860Y009516D02*
X022570Y009516D01*
X022570Y009661D01*
X022618Y009710D01*
X022715Y009710D01*
X022860Y009811D02*
X022570Y009811D01*
X022570Y009956D01*
X022618Y010004D01*
X022667Y010004D01*
X022715Y009956D01*
X022812Y010106D02*
X022618Y010106D01*
X022570Y010154D01*
X022570Y010251D01*
X022618Y010299D01*
X022812Y010106D01*
X022860Y010154D01*
X022860Y010251D01*
X022812Y010299D01*
X022618Y010299D01*
X021860Y010299D02*
X021860Y010106D01*
X021860Y010202D02*
X021570Y010202D01*
X021667Y010106D01*
X021667Y010004D02*
X021715Y009956D01*
X021715Y009811D01*
X021715Y009710D02*
X021763Y009661D01*
X021763Y009516D01*
X021860Y009516D02*
X021570Y009516D01*
X021570Y009661D01*
X021618Y009710D01*
X021715Y009710D01*
X021860Y009811D02*
X021570Y009811D01*
X021570Y009956D01*
X021618Y010004D01*
X021667Y010004D01*
X021715Y009956D02*
X021763Y010004D01*
X021812Y010004D01*
X021860Y009956D01*
X021860Y009811D01*
X020985Y009811D02*
X020985Y010004D01*
X020985Y009908D02*
X020695Y009908D01*
X020792Y009811D01*
X020792Y009710D02*
X020840Y009661D01*
X020840Y009516D01*
X020840Y009415D02*
X020888Y009367D01*
X020888Y009222D01*
X020985Y009222D02*
X020695Y009222D01*
X020695Y009367D01*
X020743Y009415D01*
X020840Y009415D01*
X020985Y009516D02*
X020695Y009516D01*
X020695Y009661D01*
X020743Y009710D01*
X020792Y009710D01*
X020840Y009661D02*
X020888Y009710D01*
X020937Y009710D01*
X020985Y009661D01*
X020985Y009516D01*
X020273Y009629D02*
X020273Y009774D01*
X020224Y009822D01*
X020176Y009822D01*
X020127Y009774D01*
X020127Y009629D01*
X020127Y009528D02*
X020176Y009479D01*
X020176Y009334D01*
X020273Y009334D02*
X019982Y009334D01*
X019982Y009479D01*
X020031Y009528D01*
X020127Y009528D01*
X019982Y009629D02*
X019982Y009774D01*
X020031Y009822D01*
X020079Y009822D01*
X020127Y009774D01*
X020079Y009923D02*
X019982Y010020D01*
X020273Y010020D01*
X020273Y009923D02*
X020273Y010117D01*
X020273Y010218D02*
X020273Y010412D01*
X020273Y010315D02*
X019982Y010315D01*
X020079Y010218D01*
X020695Y010251D02*
X020695Y010154D01*
X020743Y010106D01*
X020937Y010106D01*
X020743Y010299D01*
X020937Y010299D01*
X020985Y010251D01*
X020985Y010154D01*
X020937Y010106D01*
X020743Y010299D02*
X020695Y010251D01*
X020273Y009629D02*
X019982Y009629D01*
X019244Y010341D02*
X019195Y010293D01*
X019099Y010293D01*
X019050Y010341D01*
X018949Y010341D02*
X018901Y010293D01*
X018804Y010293D01*
X018756Y010341D01*
X018756Y010535D01*
X018804Y010583D01*
X018901Y010583D01*
X018949Y010535D01*
X019050Y010535D02*
X019099Y010583D01*
X019195Y010583D01*
X019244Y010535D01*
X019244Y010486D01*
X019195Y010438D01*
X019244Y010390D01*
X019244Y010341D01*
X019195Y010438D02*
X019147Y010438D01*
X017169Y010460D02*
X017169Y010411D01*
X017120Y010363D01*
X017169Y010315D01*
X017169Y010266D01*
X017120Y010218D01*
X017024Y010218D01*
X016975Y010266D01*
X016874Y010218D02*
X016777Y010315D01*
X016826Y010315D02*
X016681Y010315D01*
X016681Y010218D02*
X016681Y010508D01*
X016826Y010508D01*
X016874Y010460D01*
X016874Y010363D01*
X016826Y010315D01*
X016975Y010460D02*
X017024Y010508D01*
X017120Y010508D01*
X017169Y010460D01*
X017120Y010363D02*
X017072Y010363D01*
X017085Y010830D02*
X017085Y011121D01*
X016988Y011024D01*
X016887Y011072D02*
X016887Y010879D01*
X016838Y010830D01*
X016693Y010830D01*
X016693Y011121D01*
X016838Y011121D01*
X016887Y011072D01*
X016592Y011121D02*
X016399Y011121D01*
X016399Y010830D01*
X016592Y010830D01*
X016495Y010975D02*
X016399Y010975D01*
X016297Y010830D02*
X016104Y010830D01*
X016104Y011121D01*
X016988Y010830D02*
X017181Y010830D01*
X015985Y010299D02*
X015985Y010106D01*
X015792Y010299D01*
X015743Y010299D01*
X015695Y010251D01*
X015695Y010154D01*
X015743Y010106D01*
X015985Y010004D02*
X015985Y009811D01*
X015985Y009908D02*
X015695Y009908D01*
X015792Y009811D01*
X015792Y009710D02*
X015743Y009710D01*
X015695Y009661D01*
X015695Y009516D01*
X015985Y009516D01*
X015985Y009661D01*
X015937Y009710D01*
X015888Y009710D01*
X015840Y009661D01*
X015840Y009516D01*
X015840Y009415D02*
X015888Y009367D01*
X015888Y009222D01*
X015985Y009222D02*
X015695Y009222D01*
X015695Y009367D01*
X015743Y009415D01*
X015840Y009415D01*
X015840Y009661D02*
X015792Y009710D01*
X014985Y009661D02*
X014985Y009516D01*
X014695Y009516D01*
X014695Y009661D01*
X014743Y009710D01*
X014792Y009710D01*
X014840Y009661D01*
X014840Y009516D01*
X014840Y009415D02*
X014888Y009367D01*
X014888Y009222D01*
X014985Y009222D02*
X014695Y009222D01*
X014695Y009367D01*
X014743Y009415D01*
X014840Y009415D01*
X014840Y009661D02*
X014888Y009710D01*
X014937Y009710D01*
X014985Y009661D01*
X014985Y009811D02*
X014985Y010004D01*
X014985Y009908D02*
X014695Y009908D01*
X014792Y009811D01*
X014743Y010106D02*
X014695Y010154D01*
X014695Y010251D01*
X014743Y010299D01*
X014792Y010299D01*
X014840Y010251D01*
X014888Y010299D01*
X014937Y010299D01*
X014985Y010251D01*
X014985Y010154D01*
X014937Y010106D01*
X014840Y010202D02*
X014840Y010251D01*
X013985Y010251D02*
X013695Y010251D01*
X013840Y010106D01*
X013840Y010299D01*
X013985Y010004D02*
X013985Y009811D01*
X013985Y009908D02*
X013695Y009908D01*
X013792Y009811D01*
X013792Y009710D02*
X013840Y009661D01*
X013840Y009516D01*
X013840Y009415D02*
X013888Y009367D01*
X013888Y009222D01*
X013985Y009222D02*
X013695Y009222D01*
X013695Y009367D01*
X013743Y009415D01*
X013840Y009415D01*
X013985Y009516D02*
X013695Y009516D01*
X013695Y009661D01*
X013743Y009710D01*
X013792Y009710D01*
X013840Y009661D02*
X013888Y009710D01*
X013937Y009710D01*
X013985Y009661D01*
X013985Y009516D01*
X012985Y009516D02*
X012985Y009661D01*
X012937Y009710D01*
X012888Y009710D01*
X012840Y009661D01*
X012840Y009516D01*
X012840Y009415D02*
X012888Y009367D01*
X012888Y009222D01*
X012985Y009222D02*
X012695Y009222D01*
X012695Y009367D01*
X012743Y009415D01*
X012840Y009415D01*
X012985Y009516D02*
X012695Y009516D01*
X012695Y009661D01*
X012743Y009710D01*
X012792Y009710D01*
X012840Y009661D01*
X012792Y009811D02*
X012695Y009908D01*
X012985Y009908D01*
X012985Y010004D02*
X012985Y009811D01*
X012937Y010106D02*
X012985Y010154D01*
X012985Y010251D01*
X012937Y010299D01*
X012840Y010299D01*
X012792Y010251D01*
X012792Y010202D01*
X012840Y010106D01*
X012695Y010106D01*
X012695Y010299D01*
X011860Y010251D02*
X011860Y010154D01*
X011812Y010106D01*
X011715Y010106D01*
X011715Y010251D01*
X011763Y010299D01*
X011812Y010299D01*
X011860Y010251D01*
X011715Y010106D02*
X011618Y010202D01*
X011570Y010299D01*
X011618Y010004D02*
X011570Y009956D01*
X011570Y009859D01*
X011618Y009811D01*
X011812Y009811D01*
X011860Y009859D01*
X011860Y009956D01*
X011812Y010004D01*
X011715Y009710D02*
X011618Y009710D01*
X011570Y009661D01*
X011570Y009516D01*
X011860Y009516D01*
X011763Y009516D02*
X011763Y009661D01*
X011715Y009710D01*
X010860Y009859D02*
X010860Y009956D01*
X010812Y010004D01*
X010812Y010106D02*
X010860Y010106D01*
X010812Y010106D02*
X010618Y010299D01*
X010570Y010299D01*
X010570Y010106D01*
X010618Y010004D02*
X010570Y009956D01*
X010570Y009859D01*
X010618Y009811D01*
X010812Y009811D01*
X010860Y009859D01*
X010715Y009710D02*
X010763Y009661D01*
X010763Y009516D01*
X010860Y009516D02*
X010570Y009516D01*
X010570Y009661D01*
X010618Y009710D01*
X010715Y009710D01*
X010110Y009859D02*
X010110Y009956D01*
X010062Y010004D01*
X010062Y010106D02*
X010013Y010106D01*
X009965Y010154D01*
X009965Y010251D01*
X010013Y010299D01*
X010062Y010299D01*
X010110Y010251D01*
X010110Y010154D01*
X010062Y010106D01*
X009965Y010154D02*
X009917Y010106D01*
X009868Y010106D01*
X009820Y010154D01*
X009820Y010251D01*
X009868Y010299D01*
X009917Y010299D01*
X009965Y010251D01*
X009523Y010204D02*
X009523Y010301D01*
X009474Y010349D01*
X009281Y010349D01*
X009232Y010301D01*
X009232Y010204D01*
X009281Y010156D01*
X009329Y010156D01*
X009377Y010204D01*
X009377Y010349D01*
X009523Y010204D02*
X009474Y010156D01*
X009474Y010054D02*
X009523Y010006D01*
X009523Y009909D01*
X009474Y009861D01*
X009281Y009861D01*
X009232Y009909D01*
X009232Y010006D01*
X009281Y010054D01*
X009281Y009760D02*
X009377Y009760D01*
X009426Y009711D01*
X009426Y009566D01*
X009523Y009566D02*
X009232Y009566D01*
X009232Y009711D01*
X009281Y009760D01*
X009820Y009661D02*
X009820Y009516D01*
X010110Y009516D01*
X010013Y009516D02*
X010013Y009661D01*
X009965Y009710D01*
X009868Y009710D01*
X009820Y009661D01*
X009868Y009811D02*
X010062Y009811D01*
X010110Y009859D01*
X009868Y009811D02*
X009820Y009859D01*
X009820Y009956D01*
X009868Y010004D01*
X009554Y009159D02*
X009458Y009159D01*
X009409Y009111D01*
X009409Y008917D01*
X009603Y009111D01*
X009603Y008917D01*
X009554Y008869D01*
X009458Y008869D01*
X009409Y008917D01*
X009308Y008869D02*
X009115Y008869D01*
X009211Y008869D02*
X009211Y009159D01*
X009115Y009062D01*
X009013Y009111D02*
X008965Y009159D01*
X008868Y009159D01*
X008820Y009111D01*
X008820Y008917D01*
X008868Y008869D01*
X008965Y008869D01*
X009013Y008917D01*
X009554Y009159D02*
X009603Y009111D01*
X009406Y008066D02*
X009406Y007775D01*
X009309Y007775D02*
X009503Y007775D01*
X009309Y007969D02*
X009406Y008066D01*
X009111Y008066D02*
X009015Y007969D01*
X008913Y008017D02*
X008865Y008066D01*
X008768Y008066D01*
X008720Y008017D01*
X008720Y007824D01*
X008768Y007775D01*
X008865Y007775D01*
X008913Y007824D01*
X009015Y007775D02*
X009208Y007775D01*
X009111Y007775D02*
X009111Y008066D01*
X007885Y006866D02*
X007788Y006866D01*
X007740Y006817D01*
X007638Y006817D02*
X007638Y006720D01*
X007590Y006672D01*
X007445Y006672D01*
X007445Y006575D02*
X007445Y006866D01*
X007590Y006866D01*
X007638Y006817D01*
X007542Y006672D02*
X007638Y006575D01*
X007740Y006575D02*
X007933Y006769D01*
X007933Y006817D01*
X007885Y006866D01*
X007933Y006575D02*
X007740Y006575D01*
X007836Y006041D02*
X007836Y005750D01*
X007740Y005750D02*
X007933Y005750D01*
X007740Y005944D02*
X007836Y006041D01*
X007638Y005992D02*
X007590Y006041D01*
X007445Y006041D01*
X007445Y005750D01*
X007445Y005847D02*
X007590Y005847D01*
X007638Y005895D01*
X007638Y005992D01*
X007542Y005847D02*
X007638Y005750D01*
X009408Y005153D02*
X009601Y004863D01*
X009601Y005153D01*
X009751Y005056D02*
X009847Y005056D01*
X009896Y005008D01*
X009896Y004863D01*
X009751Y004863D01*
X009702Y004911D01*
X009751Y004960D01*
X009896Y004960D01*
X009997Y005056D02*
X010094Y005056D01*
X010045Y005105D02*
X010045Y004911D01*
X010094Y004863D01*
X010193Y004863D02*
X010193Y005153D01*
X010242Y005056D02*
X010338Y005056D01*
X010387Y005008D01*
X010387Y004863D01*
X010488Y004911D02*
X010536Y004960D01*
X010681Y004960D01*
X010681Y005008D02*
X010681Y004863D01*
X010536Y004863D01*
X010488Y004911D01*
X010536Y005056D02*
X010633Y005056D01*
X010681Y005008D01*
X010783Y005056D02*
X010783Y004863D01*
X010976Y004863D02*
X010976Y005008D01*
X010928Y005056D01*
X010783Y005056D01*
X010242Y005056D02*
X010193Y005008D01*
X010263Y004641D02*
X010360Y004641D01*
X010408Y004592D01*
X010215Y004399D01*
X010263Y004350D01*
X010360Y004350D01*
X010408Y004399D01*
X010408Y004592D01*
X010509Y004544D02*
X010606Y004641D01*
X010606Y004350D01*
X010509Y004350D02*
X010703Y004350D01*
X010804Y004495D02*
X010997Y004495D01*
X011099Y004544D02*
X011195Y004641D01*
X011195Y004350D01*
X011099Y004350D02*
X011292Y004350D01*
X011393Y004350D02*
X011587Y004350D01*
X011490Y004350D02*
X011490Y004641D01*
X011393Y004544D01*
X011688Y004544D02*
X011785Y004641D01*
X011785Y004350D01*
X011881Y004350D02*
X011688Y004350D01*
X011983Y004399D02*
X012031Y004350D01*
X012128Y004350D01*
X012176Y004399D01*
X012176Y004592D01*
X012128Y004641D01*
X012031Y004641D01*
X011983Y004592D01*
X011983Y004544D01*
X012031Y004495D01*
X012176Y004495D01*
X012206Y004863D02*
X012158Y004911D01*
X012158Y005008D01*
X012206Y005056D01*
X012303Y005056D01*
X012351Y005008D01*
X012351Y004960D01*
X012158Y004960D01*
X012206Y004863D02*
X012303Y004863D01*
X012452Y004863D02*
X012597Y004863D01*
X012646Y004911D01*
X012597Y004960D01*
X012501Y004960D01*
X012452Y005008D01*
X012501Y005056D01*
X012646Y005056D01*
X012058Y005056D02*
X011961Y005056D01*
X012010Y005105D02*
X012010Y004911D01*
X012058Y004863D01*
X011860Y004863D02*
X011860Y005008D01*
X011812Y005056D01*
X011715Y005056D01*
X011715Y004960D02*
X011666Y004911D01*
X011715Y004863D01*
X011860Y004863D01*
X011860Y004960D02*
X011715Y004960D01*
X011565Y005008D02*
X011469Y005008D01*
X011565Y005008D02*
X011565Y004911D01*
X011517Y004863D01*
X011420Y004863D01*
X011372Y004911D01*
X011372Y005105D01*
X011420Y005153D01*
X011517Y005153D01*
X011565Y005105D01*
X010949Y004641D02*
X010804Y004495D01*
X010949Y004350D02*
X010949Y004641D01*
X010263Y004641D02*
X010215Y004592D01*
X010215Y004399D01*
X010113Y004350D02*
X009920Y004350D01*
X010113Y004544D01*
X010113Y004592D01*
X010065Y004641D01*
X009968Y004641D01*
X009920Y004592D01*
X009408Y004863D02*
X009408Y005153D01*
X008790Y003678D02*
X008790Y003484D01*
X008597Y003678D01*
X008548Y003678D01*
X008500Y003629D01*
X008500Y003533D01*
X008548Y003484D01*
X008500Y003286D02*
X008790Y003286D01*
X008790Y003190D02*
X008790Y003383D01*
X008597Y003190D02*
X008500Y003286D01*
X008548Y003088D02*
X008500Y003040D01*
X008500Y002943D01*
X008548Y002895D01*
X008742Y002895D01*
X008790Y002943D01*
X008790Y003040D01*
X008742Y003088D01*
X008645Y002794D02*
X008693Y002745D01*
X008693Y002600D01*
X008790Y002600D02*
X008500Y002600D01*
X008500Y002745D01*
X008548Y002794D01*
X008645Y002794D01*
X009500Y002745D02*
X009500Y002600D01*
X009790Y002600D01*
X009693Y002600D02*
X009693Y002745D01*
X009645Y002794D01*
X009548Y002794D01*
X009500Y002745D01*
X009500Y002895D02*
X009500Y003040D01*
X009548Y003088D01*
X009742Y003088D01*
X009790Y003040D01*
X009790Y002895D01*
X009500Y002895D01*
X009548Y003190D02*
X009500Y003238D01*
X009500Y003335D01*
X009548Y003383D01*
X009597Y003383D01*
X009790Y003190D01*
X009790Y003383D01*
X010500Y003335D02*
X010548Y003383D01*
X010597Y003383D01*
X010645Y003335D01*
X010693Y003383D01*
X010742Y003383D01*
X010790Y003335D01*
X010790Y003238D01*
X010742Y003190D01*
X010742Y003088D02*
X010790Y003040D01*
X010790Y002895D01*
X010500Y002895D01*
X010500Y003040D01*
X010548Y003088D01*
X010597Y003088D01*
X010645Y003040D01*
X010645Y002895D01*
X010645Y002794D02*
X010693Y002745D01*
X010693Y002600D01*
X010790Y002600D02*
X010500Y002600D01*
X010500Y002745D01*
X010548Y002794D01*
X010645Y002794D01*
X010645Y003040D02*
X010693Y003088D01*
X010742Y003088D01*
X010548Y003190D02*
X010500Y003238D01*
X010500Y003335D01*
X010645Y003335D02*
X010645Y003286D01*
X011500Y003335D02*
X011645Y003190D01*
X011645Y003383D01*
X011790Y003335D02*
X011500Y003335D01*
X011548Y003088D02*
X011597Y003088D01*
X011645Y003040D01*
X011645Y002895D01*
X011645Y002794D02*
X011693Y002745D01*
X011693Y002600D01*
X011790Y002600D02*
X011500Y002600D01*
X011500Y002745D01*
X011548Y002794D01*
X011645Y002794D01*
X011790Y002895D02*
X011500Y002895D01*
X011500Y003040D01*
X011548Y003088D01*
X011645Y003040D02*
X011693Y003088D01*
X011742Y003088D01*
X011790Y003040D01*
X011790Y002895D01*
X012500Y002895D02*
X012500Y003040D01*
X012548Y003088D01*
X012597Y003088D01*
X012645Y003040D01*
X012645Y002895D01*
X012645Y002794D02*
X012548Y002794D01*
X012500Y002745D01*
X012500Y002600D01*
X012790Y002600D01*
X012693Y002600D02*
X012693Y002745D01*
X012645Y002794D01*
X012790Y002895D02*
X012500Y002895D01*
X012645Y003040D02*
X012693Y003088D01*
X012742Y003088D01*
X012790Y003040D01*
X012790Y002895D01*
X012742Y003190D02*
X012790Y003238D01*
X012790Y003335D01*
X012742Y003383D01*
X012645Y003383D01*
X012597Y003335D01*
X012597Y003286D01*
X012645Y003190D01*
X012500Y003190D01*
X012500Y003383D01*
X013500Y003383D02*
X013548Y003286D01*
X013645Y003190D01*
X013645Y003335D01*
X013693Y003383D01*
X013742Y003383D01*
X013790Y003335D01*
X013790Y003238D01*
X013742Y003190D01*
X013645Y003190D01*
X013693Y003088D02*
X013742Y003088D01*
X013790Y003040D01*
X013790Y002895D01*
X013500Y002895D01*
X013500Y003040D01*
X013548Y003088D01*
X013597Y003088D01*
X013645Y003040D01*
X013645Y002895D01*
X013645Y002794D02*
X013548Y002794D01*
X013500Y002745D01*
X013500Y002600D01*
X013790Y002600D01*
X013693Y002600D02*
X013693Y002745D01*
X013645Y002794D01*
X013645Y003040D02*
X013693Y003088D01*
X014500Y003040D02*
X014500Y002895D01*
X014790Y002895D01*
X014790Y003040D01*
X014742Y003088D01*
X014693Y003088D01*
X014645Y003040D01*
X014645Y002895D01*
X014645Y002794D02*
X014693Y002745D01*
X014693Y002600D01*
X014790Y002600D02*
X014500Y002600D01*
X014500Y002745D01*
X014548Y002794D01*
X014645Y002794D01*
X014645Y003040D02*
X014597Y003088D01*
X014548Y003088D01*
X014500Y003040D01*
X014500Y003190D02*
X014500Y003383D01*
X014548Y003383D01*
X014742Y003190D01*
X014790Y003190D01*
X015500Y003238D02*
X015548Y003190D01*
X015742Y003190D01*
X015790Y003238D01*
X015790Y003335D01*
X015742Y003383D01*
X015548Y003383D01*
X015500Y003335D01*
X015500Y003238D01*
X015548Y003088D02*
X015500Y003040D01*
X015500Y002943D01*
X015548Y002895D01*
X015742Y002895D01*
X015790Y002943D01*
X015790Y003040D01*
X015742Y003088D01*
X015548Y003088D01*
X015500Y003484D02*
X015500Y003678D01*
X015500Y003581D02*
X015790Y003581D01*
X015742Y003779D02*
X015548Y003972D01*
X015742Y003972D01*
X015790Y003924D01*
X015790Y003827D01*
X015742Y003779D01*
X015548Y003779D01*
X015500Y003827D01*
X015500Y003924D01*
X015548Y003972D01*
X016350Y003335D02*
X016398Y003383D01*
X016447Y003383D01*
X016495Y003335D01*
X016495Y003238D01*
X016447Y003190D01*
X016398Y003190D01*
X016350Y003238D01*
X016350Y003335D01*
X016495Y003335D02*
X016543Y003383D01*
X016592Y003383D01*
X016640Y003335D01*
X016640Y003238D01*
X016592Y003190D01*
X016543Y003190D01*
X016495Y003238D01*
X016543Y003088D02*
X016592Y003088D01*
X016640Y003040D01*
X016640Y002895D01*
X016350Y002895D01*
X016350Y003040D01*
X016398Y003088D01*
X016447Y003088D01*
X016495Y003040D01*
X016495Y002895D01*
X016495Y002794D02*
X016398Y002794D01*
X016350Y002745D01*
X016350Y002600D01*
X016640Y002600D01*
X016543Y002600D02*
X016543Y002745D01*
X016495Y002794D01*
X016975Y002720D02*
X016975Y002575D01*
X017265Y002575D01*
X017168Y002575D02*
X017168Y002720D01*
X017120Y002769D01*
X017023Y002769D01*
X016975Y002720D01*
X016975Y002870D02*
X016975Y003015D01*
X017023Y003063D01*
X017072Y003063D01*
X017120Y003015D01*
X017120Y002870D01*
X017265Y002870D02*
X017265Y003015D01*
X017217Y003063D01*
X017168Y003063D01*
X017120Y003015D01*
X017072Y003165D02*
X017023Y003165D01*
X016975Y003213D01*
X016975Y003310D01*
X017023Y003358D01*
X017217Y003358D01*
X017265Y003310D01*
X017265Y003213D01*
X017217Y003165D01*
X017120Y003213D02*
X017120Y003358D01*
X017120Y003213D02*
X017072Y003165D01*
X016975Y002870D02*
X017265Y002870D01*
X016543Y003088D02*
X016495Y003040D01*
X015790Y002745D02*
X015790Y002600D01*
X015500Y002600D01*
X015500Y002745D01*
X015548Y002794D01*
X015597Y002794D01*
X015645Y002745D01*
X015645Y002600D01*
X015645Y002745D02*
X015693Y002794D01*
X015742Y002794D01*
X015790Y002745D01*
X016806Y003679D02*
X016854Y003630D01*
X016951Y003630D01*
X016999Y003679D01*
X017100Y003679D02*
X017149Y003630D01*
X017245Y003630D01*
X017294Y003679D01*
X017294Y003775D01*
X017245Y003824D01*
X017197Y003824D01*
X017100Y003775D01*
X017100Y003921D01*
X017294Y003921D01*
X016999Y003872D02*
X016951Y003921D01*
X016854Y003921D01*
X016806Y003872D01*
X016806Y003679D01*
X018437Y003629D02*
X018486Y003678D01*
X018534Y003678D01*
X018582Y003629D01*
X018631Y003678D01*
X018679Y003678D01*
X018728Y003629D01*
X018728Y003533D01*
X018679Y003484D01*
X018728Y003383D02*
X018728Y003190D01*
X018728Y003286D02*
X018437Y003286D01*
X018534Y003190D01*
X018486Y003088D02*
X018437Y003040D01*
X018437Y002943D01*
X018486Y002895D01*
X018679Y002895D01*
X018728Y002943D01*
X018728Y003040D01*
X018679Y003088D01*
X018486Y003484D02*
X018437Y003533D01*
X018437Y003629D01*
X018582Y003629D02*
X018582Y003581D01*
X018582Y002794D02*
X018631Y002745D01*
X018631Y002600D01*
X018728Y002600D02*
X018437Y002600D01*
X018437Y002745D01*
X018486Y002794D01*
X018582Y002794D01*
X019261Y002397D02*
X019261Y002204D01*
X019309Y002155D01*
X019406Y002155D01*
X019455Y002204D01*
X019556Y002155D02*
X019749Y002155D01*
X019652Y002155D02*
X019652Y002446D01*
X019556Y002349D01*
X019455Y002397D02*
X019406Y002446D01*
X019309Y002446D01*
X019261Y002397D01*
X019850Y002397D02*
X019899Y002446D01*
X019995Y002446D01*
X020044Y002397D01*
X020044Y002349D01*
X019850Y002155D01*
X020044Y002155D01*
X023625Y002600D02*
X023625Y002745D01*
X023673Y002794D01*
X023770Y002794D01*
X023818Y002745D01*
X023818Y002600D01*
X023915Y002600D02*
X023625Y002600D01*
X023673Y002895D02*
X023867Y002895D01*
X023915Y002943D01*
X023915Y003040D01*
X023867Y003088D01*
X023867Y003190D02*
X023673Y003383D01*
X023867Y003383D01*
X023915Y003335D01*
X023915Y003238D01*
X023867Y003190D01*
X023673Y003190D01*
X023625Y003238D01*
X023625Y003335D01*
X023673Y003383D01*
X023637Y003491D02*
X023685Y003540D01*
X023685Y003636D01*
X023637Y003685D01*
X023685Y003786D02*
X023685Y003979D01*
X023685Y003883D02*
X023395Y003883D01*
X023492Y003786D01*
X023443Y003685D02*
X023395Y003636D01*
X023395Y003540D01*
X023443Y003491D01*
X023637Y003491D01*
X023673Y003088D02*
X023625Y003040D01*
X023625Y002943D01*
X023673Y002895D01*
X024500Y002943D02*
X024548Y002895D01*
X024742Y002895D01*
X024790Y002943D01*
X024790Y003040D01*
X024742Y003088D01*
X024790Y003190D02*
X024790Y003383D01*
X024790Y003286D02*
X024500Y003286D01*
X024597Y003190D01*
X024548Y003088D02*
X024500Y003040D01*
X024500Y002943D01*
X024548Y002794D02*
X024645Y002794D01*
X024693Y002745D01*
X024693Y002600D01*
X024790Y002600D02*
X024500Y002600D01*
X024500Y002745D01*
X024548Y002794D01*
X025625Y002745D02*
X025625Y002600D01*
X025915Y002600D01*
X025818Y002600D02*
X025818Y002745D01*
X025770Y002794D01*
X025673Y002794D01*
X025625Y002745D01*
X025673Y002895D02*
X025867Y002895D01*
X025915Y002943D01*
X025915Y003040D01*
X025867Y003088D01*
X025915Y003190D02*
X025722Y003383D01*
X025673Y003383D01*
X025625Y003335D01*
X025625Y003238D01*
X025673Y003190D01*
X025673Y003088D02*
X025625Y003040D01*
X025625Y002943D01*
X025673Y002895D01*
X025915Y003190D02*
X025915Y003383D01*
X026500Y003335D02*
X026548Y003383D01*
X026597Y003383D01*
X026645Y003335D01*
X026693Y003383D01*
X026742Y003383D01*
X026790Y003335D01*
X026790Y003238D01*
X026742Y003190D01*
X026742Y003088D02*
X026790Y003040D01*
X026790Y002943D01*
X026742Y002895D01*
X026548Y002895D01*
X026500Y002943D01*
X026500Y003040D01*
X026548Y003088D01*
X026548Y003190D02*
X026500Y003238D01*
X026500Y003335D01*
X026645Y003335D02*
X026645Y003286D01*
X027500Y003238D02*
X027548Y003190D01*
X027742Y003190D01*
X027548Y003383D01*
X027742Y003383D01*
X027790Y003335D01*
X027790Y003238D01*
X027742Y003190D01*
X027790Y003088D02*
X027597Y003088D01*
X027500Y002992D01*
X027597Y002895D01*
X027790Y002895D01*
X027645Y002895D02*
X027645Y003088D01*
X027500Y003238D02*
X027500Y003335D01*
X027548Y003383D01*
X028500Y003286D02*
X028597Y003190D01*
X028597Y003088D02*
X028790Y003088D01*
X028790Y003190D02*
X028790Y003383D01*
X028790Y003286D02*
X028500Y003286D01*
X028597Y003088D02*
X028500Y002992D01*
X028597Y002895D01*
X028790Y002895D01*
X028645Y002895D02*
X028645Y003088D01*
X028645Y002794D02*
X028693Y002745D01*
X028693Y002600D01*
X028790Y002600D02*
X028500Y002600D01*
X028500Y002745D01*
X028548Y002794D01*
X028645Y002794D01*
X029500Y002745D02*
X029500Y002600D01*
X029790Y002600D01*
X029693Y002600D02*
X029693Y002745D01*
X029645Y002794D01*
X029548Y002794D01*
X029500Y002745D01*
X029597Y002895D02*
X029500Y002992D01*
X029597Y003088D01*
X029790Y003088D01*
X029790Y003190D02*
X029597Y003383D01*
X029548Y003383D01*
X029500Y003335D01*
X029500Y003238D01*
X029548Y003190D01*
X029645Y003088D02*
X029645Y002895D01*
X029597Y002895D02*
X029790Y002895D01*
X029790Y003190D02*
X029790Y003383D01*
X030500Y003335D02*
X030500Y003190D01*
X030790Y003190D01*
X030790Y003335D01*
X030742Y003383D01*
X030548Y003383D01*
X030500Y003335D01*
X030500Y003088D02*
X030790Y003088D01*
X030500Y002895D01*
X030790Y002895D01*
X030742Y002794D02*
X030645Y002794D01*
X030645Y002697D01*
X030548Y002600D02*
X030742Y002600D01*
X030790Y002649D01*
X030790Y002745D01*
X030742Y002794D01*
X030548Y002794D02*
X030500Y002745D01*
X030500Y002649D01*
X030548Y002600D01*
X027790Y002600D02*
X027500Y002600D01*
X027500Y002745D01*
X027548Y002794D01*
X027645Y002794D01*
X027693Y002745D01*
X027693Y002600D01*
X026790Y002600D02*
X026500Y002600D01*
X026500Y002745D01*
X026548Y002794D01*
X026645Y002794D01*
X026693Y002745D01*
X026693Y002600D01*
X029986Y003980D02*
X029986Y004271D01*
X030131Y004271D01*
X030180Y004222D01*
X030180Y004125D01*
X030131Y004077D01*
X029986Y004077D01*
X030083Y004077D02*
X030180Y003980D01*
X030281Y004029D02*
X030329Y003980D01*
X030426Y003980D01*
X030474Y004029D01*
X030474Y004077D01*
X030426Y004125D01*
X030329Y004125D01*
X030281Y004174D01*
X030281Y004222D01*
X030329Y004271D01*
X030426Y004271D01*
X030474Y004222D01*
X030575Y004271D02*
X030769Y004271D01*
X030672Y004271D02*
X030672Y003980D01*
X023685Y004129D02*
X023637Y004081D01*
X023685Y004129D02*
X023685Y004226D01*
X023637Y004274D01*
X023588Y004274D01*
X023540Y004226D01*
X023540Y004177D01*
X023540Y004226D02*
X023492Y004274D01*
X023443Y004274D01*
X023395Y004226D01*
X023395Y004129D01*
X023443Y004081D01*
X022933Y004125D02*
X022740Y004125D01*
X022836Y004125D02*
X022836Y004416D01*
X022740Y004319D01*
X022638Y004367D02*
X022638Y004416D01*
X022638Y004367D02*
X022542Y004270D01*
X022542Y004125D01*
X022542Y004270D02*
X022445Y004367D01*
X022445Y004416D01*
X022160Y004609D02*
X022160Y004706D01*
X022112Y004754D01*
X022112Y004856D02*
X022015Y004856D01*
X022015Y005001D01*
X022063Y005049D01*
X022112Y005049D01*
X022160Y005001D01*
X022160Y004904D01*
X022112Y004856D01*
X022015Y004856D02*
X021918Y004952D01*
X021870Y005049D01*
X021918Y004754D02*
X021870Y004706D01*
X021870Y004609D01*
X021918Y004561D01*
X022112Y004561D01*
X022160Y004609D01*
X015410Y005059D02*
X015362Y005011D01*
X015168Y005011D01*
X015120Y005059D01*
X015120Y005156D01*
X015168Y005204D01*
X015265Y005306D02*
X015265Y005499D01*
X015410Y005451D02*
X015120Y005451D01*
X015265Y005306D01*
X015362Y005204D02*
X015410Y005156D01*
X015410Y005059D01*
X007790Y003678D02*
X007790Y003484D01*
X007790Y003581D02*
X007500Y003581D01*
X007597Y003484D01*
X007790Y003383D02*
X007790Y003190D01*
X007790Y003286D02*
X007500Y003286D01*
X007597Y003190D01*
X007548Y003088D02*
X007500Y003040D01*
X007500Y002943D01*
X007548Y002895D01*
X007742Y002895D01*
X007790Y002943D01*
X007790Y003040D01*
X007742Y003088D01*
X007645Y002794D02*
X007548Y002794D01*
X007500Y002745D01*
X007500Y002600D01*
X007790Y002600D01*
X007693Y002600D02*
X007693Y002745D01*
X007645Y002794D01*
X006790Y002943D02*
X006742Y002895D01*
X006548Y002895D01*
X006500Y002943D01*
X006500Y003040D01*
X006548Y003088D01*
X006597Y003190D02*
X006500Y003286D01*
X006790Y003286D01*
X006790Y003190D02*
X006790Y003383D01*
X006742Y003484D02*
X006548Y003678D01*
X006742Y003678D01*
X006790Y003629D01*
X006790Y003533D01*
X006742Y003484D01*
X006548Y003484D01*
X006500Y003533D01*
X006500Y003629D01*
X006548Y003678D01*
X005790Y003629D02*
X005790Y003533D01*
X005742Y003484D01*
X005645Y003484D02*
X005597Y003581D01*
X005597Y003629D01*
X005645Y003678D01*
X005742Y003678D01*
X005790Y003629D01*
X005645Y003484D02*
X005500Y003484D01*
X005500Y003678D01*
X005292Y003850D02*
X005147Y003995D01*
X005099Y003947D02*
X005292Y004141D01*
X005099Y004141D02*
X005099Y003850D01*
X004997Y003850D02*
X004804Y003850D01*
X004804Y004141D01*
X004703Y004092D02*
X004654Y004141D01*
X004558Y004141D01*
X004509Y004092D01*
X004509Y003899D01*
X004558Y003850D01*
X004654Y003850D01*
X004703Y003899D01*
X004645Y003678D02*
X004645Y003484D01*
X004500Y003629D01*
X004790Y003629D01*
X004790Y003383D02*
X004790Y003190D01*
X004790Y003286D02*
X004500Y003286D01*
X004597Y003190D01*
X004597Y003088D02*
X004790Y003088D01*
X004645Y003088D02*
X004645Y002895D01*
X004597Y002895D02*
X004500Y002992D01*
X004597Y003088D01*
X004597Y002895D02*
X004790Y002895D01*
X004645Y002794D02*
X004693Y002745D01*
X004693Y002600D01*
X004790Y002600D02*
X004500Y002600D01*
X004500Y002745D01*
X004548Y002794D01*
X004645Y002794D01*
X005500Y002745D02*
X005500Y002600D01*
X005790Y002600D01*
X005693Y002600D02*
X005693Y002745D01*
X005645Y002794D01*
X005548Y002794D01*
X005500Y002745D01*
X005597Y002895D02*
X005500Y002992D01*
X005597Y003088D01*
X005790Y003088D01*
X005790Y003190D02*
X005790Y003383D01*
X005790Y003286D02*
X005500Y003286D01*
X005597Y003190D01*
X005645Y003088D02*
X005645Y002895D01*
X005597Y002895D02*
X005790Y002895D01*
X006500Y002745D02*
X006500Y002600D01*
X006790Y002600D01*
X006693Y002600D02*
X006693Y002745D01*
X006645Y002794D01*
X006548Y002794D01*
X006500Y002745D01*
X006790Y002943D02*
X006790Y003040D01*
X006742Y003088D01*
X004408Y003850D02*
X004408Y004141D01*
X004215Y004141D02*
X004215Y003850D01*
X004311Y003947D01*
X004408Y003850D01*
X004113Y003899D02*
X004065Y003850D01*
X003968Y003850D01*
X003920Y003899D01*
X003968Y003995D02*
X004065Y003995D01*
X004113Y003947D01*
X004113Y003899D01*
X003968Y003995D02*
X003920Y004044D01*
X003920Y004092D01*
X003968Y004141D01*
X004065Y004141D01*
X004113Y004092D01*
X002790Y003335D02*
X002742Y003383D01*
X002548Y003383D01*
X002500Y003335D01*
X002500Y003190D01*
X002790Y003190D01*
X002790Y003335D01*
X002790Y003088D02*
X002500Y003088D01*
X002500Y002895D02*
X002790Y003088D01*
X002790Y002895D02*
X002500Y002895D01*
X002548Y002794D02*
X002500Y002745D01*
X002500Y002649D01*
X002548Y002600D01*
X002742Y002600D01*
X002790Y002649D01*
X002790Y002745D01*
X002742Y002794D01*
X002645Y002794D01*
X002645Y002697D01*
X002374Y006246D02*
X002132Y006246D01*
X002132Y006440D02*
X002374Y006440D01*
X002422Y006391D01*
X002422Y006295D01*
X002374Y006246D01*
X002374Y006541D02*
X002422Y006589D01*
X002422Y006686D01*
X002374Y006734D01*
X002325Y006734D01*
X002277Y006686D01*
X002277Y006589D01*
X002229Y006541D01*
X002180Y006541D01*
X002132Y006589D01*
X002132Y006686D01*
X002180Y006734D01*
X002132Y006836D02*
X002132Y006981D01*
X002180Y007029D01*
X002229Y007029D01*
X002277Y006981D01*
X002277Y006836D01*
X002277Y006981D02*
X002325Y007029D01*
X002374Y007029D01*
X002422Y006981D01*
X002422Y006836D01*
X002132Y006836D01*
X003831Y007860D02*
X003879Y007812D01*
X003976Y007812D01*
X004024Y007860D01*
X004125Y007812D02*
X004319Y007812D01*
X004222Y007812D02*
X004222Y008102D01*
X004125Y008005D01*
X004024Y008053D02*
X003976Y008102D01*
X003879Y008102D01*
X003831Y008053D01*
X003831Y007860D01*
X003720Y008465D02*
X003720Y008561D01*
X003720Y008513D02*
X004010Y008513D01*
X004010Y008465D02*
X004010Y008561D01*
X003962Y008661D02*
X004010Y008709D01*
X004010Y008806D01*
X003962Y008854D01*
X004010Y008956D02*
X004010Y009149D01*
X004010Y009052D02*
X003720Y009052D01*
X003817Y008956D01*
X003768Y008854D02*
X003720Y008806D01*
X003720Y008709D01*
X003768Y008661D01*
X003962Y008661D01*
X005445Y009222D02*
X005445Y009367D01*
X005493Y009415D01*
X005590Y009415D01*
X005638Y009367D01*
X005638Y009222D01*
X005735Y009222D02*
X005445Y009222D01*
X005542Y009516D02*
X005445Y009613D01*
X005542Y009710D01*
X005735Y009710D01*
X005735Y009811D02*
X005735Y010004D01*
X005735Y009908D02*
X005445Y009908D01*
X005542Y009811D01*
X005590Y009710D02*
X005590Y009516D01*
X005542Y009516D02*
X005735Y009516D01*
X005010Y009640D02*
X004962Y009591D01*
X005010Y009640D02*
X005010Y009736D01*
X004962Y009785D01*
X004913Y009785D01*
X004865Y009736D01*
X004865Y009688D01*
X004865Y009736D02*
X004817Y009785D01*
X004768Y009785D01*
X004720Y009736D01*
X004720Y009640D01*
X004768Y009591D01*
X004720Y009886D02*
X004913Y009886D01*
X005010Y009983D01*
X004913Y010079D01*
X004720Y010079D01*
X004768Y010181D02*
X004720Y010229D01*
X004720Y010326D01*
X004768Y010374D01*
X004817Y010374D01*
X004865Y010326D01*
X004913Y010374D01*
X004962Y010374D01*
X005010Y010326D01*
X005010Y010229D01*
X004962Y010181D01*
X004865Y010277D02*
X004865Y010326D01*
X004333Y010347D02*
X004333Y010541D01*
X004140Y010541D02*
X004140Y010347D01*
X004236Y010250D01*
X004333Y010347D01*
X004038Y010395D02*
X004038Y010299D01*
X003990Y010250D01*
X003893Y010250D01*
X003845Y010299D01*
X003845Y010395D02*
X003942Y010444D01*
X003990Y010444D01*
X004038Y010395D01*
X004038Y010541D02*
X003845Y010541D01*
X003845Y010395D01*
X005445Y010251D02*
X005445Y010154D01*
X005493Y010106D01*
X005590Y010202D02*
X005590Y010251D01*
X005638Y010299D01*
X005687Y010299D01*
X005735Y010251D01*
X005735Y010154D01*
X005687Y010106D01*
X005831Y010149D02*
X005879Y010100D01*
X006073Y010100D01*
X006121Y010149D01*
X006121Y010245D01*
X006073Y010294D01*
X006073Y010395D02*
X006121Y010443D01*
X006121Y010540D01*
X006073Y010588D01*
X005879Y010588D01*
X005831Y010540D01*
X005831Y010443D01*
X005879Y010395D01*
X005928Y010395D01*
X005976Y010443D01*
X005976Y010588D01*
X005879Y010294D02*
X005831Y010245D01*
X005831Y010149D01*
X005590Y010251D02*
X005542Y010299D01*
X005493Y010299D01*
X005445Y010251D01*
X002135Y010590D02*
X002135Y010686D01*
X002087Y010735D01*
X001990Y010735D01*
X001990Y010638D01*
X002087Y010541D02*
X002135Y010590D01*
X002087Y010541D02*
X001893Y010541D01*
X001845Y010590D01*
X001845Y010686D01*
X001893Y010735D01*
X001845Y010836D02*
X002135Y011029D01*
X001845Y011029D01*
X001845Y011131D02*
X001845Y011276D01*
X001893Y011324D01*
X002087Y011324D01*
X002135Y011276D01*
X002135Y011131D01*
X001845Y011131D01*
X001845Y010836D02*
X002135Y010836D01*
X023620Y008123D02*
X023620Y007929D01*
X023669Y007881D01*
X023765Y007881D01*
X023814Y007929D01*
X023915Y007881D02*
X024108Y008074D01*
X024108Y008123D01*
X024060Y008171D01*
X023963Y008171D01*
X023915Y008123D01*
X023814Y008123D02*
X023765Y008171D01*
X023669Y008171D01*
X023620Y008123D01*
X023915Y007881D02*
X024108Y007881D01*
X027031Y007852D02*
X027176Y007852D01*
X027224Y007900D01*
X027224Y007997D01*
X027176Y008046D01*
X027031Y008046D01*
X027031Y007755D01*
X027127Y007852D02*
X027224Y007755D01*
X027325Y007804D02*
X027374Y007755D01*
X027470Y007755D01*
X027519Y007804D01*
X027519Y007900D01*
X027470Y007949D01*
X027422Y007949D01*
X027325Y007900D01*
X027325Y008046D01*
X027519Y008046D01*
X028715Y010106D02*
X028715Y010299D01*
X028860Y010251D02*
X028570Y010251D01*
X028715Y010106D01*
D12*
X003180Y009473D03*
D13*
X004936Y009445D02*
X005274Y009445D01*
X005424Y008991D02*
X005424Y008780D01*
X006199Y008520D02*
X006356Y008363D01*
X006986Y008363D01*
X006861Y008083D02*
X006861Y007138D01*
X006074Y007138D01*
X005286Y007138D02*
X004656Y007138D01*
X004499Y007295D01*
X004499Y007925D01*
X004656Y008083D01*
X005286Y008083D01*
X005274Y008325D02*
X004936Y008325D01*
X006074Y008083D02*
X006861Y008083D01*
X006199Y008520D02*
X006199Y009150D01*
X006356Y009308D01*
X006986Y009308D01*
X006986Y009563D02*
X006356Y009563D01*
X006199Y009720D01*
X006199Y010350D01*
X006356Y010508D01*
X006986Y010508D01*
X007774Y010508D02*
X008561Y010508D01*
X008561Y009563D01*
X007774Y009563D01*
X007774Y009308D02*
X008561Y009308D01*
X008561Y008363D01*
X007774Y008363D01*
X002826Y007351D02*
X002826Y005619D01*
X017613Y010804D02*
X017613Y010985D01*
X017735Y011077D01*
X017613Y011166D02*
X017613Y010985D01*
X017619Y010975D02*
X017735Y010899D01*
X021194Y003865D02*
X021666Y003865D01*
X022414Y003353D02*
X022414Y003117D01*
X021666Y002605D02*
X021194Y002605D01*
X020446Y003117D02*
X020446Y003353D01*
D14*
X028505Y007610D03*
X018005Y010423D03*
X006680Y006610D03*
X006680Y005860D03*
D15*
X005530Y007210D02*
X005530Y008010D01*
X007230Y008435D02*
X007230Y009235D01*
X007230Y009635D02*
X007230Y010435D01*
X015943Y006458D02*
X018727Y009242D01*
X021511Y006458D01*
X018727Y003674D01*
X015943Y006458D01*
X018609Y003994D02*
X018611Y004016D01*
X018617Y004037D01*
X018626Y004056D01*
X018639Y004074D01*
X018655Y004089D01*
X018673Y004101D01*
X018693Y004109D01*
X018714Y004114D01*
X018735Y004115D01*
X018757Y004112D01*
X018778Y004105D01*
X018797Y004095D01*
X018814Y004081D01*
X018828Y004065D01*
X018839Y004046D01*
X018847Y004026D01*
X018851Y004005D01*
X018851Y003983D01*
X018847Y003962D01*
X018839Y003942D01*
X018828Y003923D01*
X018814Y003907D01*
X018797Y003893D01*
X018778Y003883D01*
X018757Y003876D01*
X018735Y003873D01*
X018714Y003874D01*
X018693Y003879D01*
X018673Y003887D01*
X018655Y003899D01*
X018639Y003914D01*
X018626Y003932D01*
X018617Y003951D01*
X018611Y003972D01*
X018609Y003994D01*
X029938Y004770D02*
X029938Y005951D01*
X030922Y005951D02*
X030922Y004770D01*
X030135Y005360D02*
X030137Y005394D01*
X030143Y005428D01*
X030153Y005461D01*
X030166Y005492D01*
X030184Y005522D01*
X030204Y005550D01*
X030228Y005575D01*
X030254Y005597D01*
X030282Y005615D01*
X030313Y005631D01*
X030345Y005643D01*
X030379Y005651D01*
X030413Y005655D01*
X030447Y005655D01*
X030481Y005651D01*
X030515Y005643D01*
X030547Y005631D01*
X030577Y005615D01*
X030606Y005597D01*
X030632Y005575D01*
X030656Y005550D01*
X030676Y005522D01*
X030694Y005492D01*
X030707Y005461D01*
X030717Y005428D01*
X030723Y005394D01*
X030725Y005360D01*
X030723Y005326D01*
X030717Y005292D01*
X030707Y005259D01*
X030694Y005228D01*
X030676Y005198D01*
X030656Y005170D01*
X030632Y005145D01*
X030606Y005123D01*
X030578Y005105D01*
X030547Y005089D01*
X030515Y005077D01*
X030481Y005069D01*
X030447Y005065D01*
X030413Y005065D01*
X030379Y005069D01*
X030345Y005077D01*
X030313Y005089D01*
X030282Y005105D01*
X030254Y005123D01*
X030228Y005145D01*
X030204Y005170D01*
X030184Y005198D01*
X030166Y005228D01*
X030153Y005259D01*
X030143Y005292D01*
X030137Y005326D01*
X030135Y005360D01*
X029938Y007020D02*
X029938Y008201D01*
X030922Y008201D02*
X030922Y007020D01*
X030135Y007610D02*
X030137Y007644D01*
X030143Y007678D01*
X030153Y007711D01*
X030166Y007742D01*
X030184Y007772D01*
X030204Y007800D01*
X030228Y007825D01*
X030254Y007847D01*
X030282Y007865D01*
X030313Y007881D01*
X030345Y007893D01*
X030379Y007901D01*
X030413Y007905D01*
X030447Y007905D01*
X030481Y007901D01*
X030515Y007893D01*
X030547Y007881D01*
X030577Y007865D01*
X030606Y007847D01*
X030632Y007825D01*
X030656Y007800D01*
X030676Y007772D01*
X030694Y007742D01*
X030707Y007711D01*
X030717Y007678D01*
X030723Y007644D01*
X030725Y007610D01*
X030723Y007576D01*
X030717Y007542D01*
X030707Y007509D01*
X030694Y007478D01*
X030676Y007448D01*
X030656Y007420D01*
X030632Y007395D01*
X030606Y007373D01*
X030578Y007355D01*
X030547Y007339D01*
X030515Y007327D01*
X030481Y007319D01*
X030447Y007315D01*
X030413Y007315D01*
X030379Y007319D01*
X030345Y007327D01*
X030313Y007339D01*
X030282Y007355D01*
X030254Y007373D01*
X030228Y007395D01*
X030204Y007420D01*
X030184Y007448D01*
X030166Y007478D01*
X030153Y007509D01*
X030143Y007542D01*
X030137Y007576D01*
X030135Y007610D01*
D16*
X028567Y004485D02*
X028543Y004485D01*
X023092Y003385D02*
X023068Y003385D01*
X021442Y004660D02*
X021418Y004660D01*
X017905Y003247D02*
X017905Y003223D01*
X019630Y002897D02*
X019630Y002873D01*
X015567Y006485D02*
X015543Y006485D01*
X018680Y009661D02*
X018680Y009685D01*
X022830Y007828D02*
X022830Y007804D01*
X007805Y007748D02*
X007805Y007772D01*
D17*
X008712Y009476D02*
X008712Y009631D01*
X008764Y009683D01*
X008867Y009683D01*
X008919Y009631D01*
X008919Y009476D01*
X009023Y009476D02*
X008712Y009476D01*
X008816Y009798D02*
X008712Y009902D01*
X008816Y010005D01*
X009023Y010005D01*
X008971Y010120D02*
X009023Y010172D01*
X009023Y010276D01*
X008971Y010327D01*
X008764Y010327D01*
X008712Y010276D01*
X008712Y010172D01*
X008764Y010120D01*
X008816Y010120D01*
X008867Y010172D01*
X008867Y010327D01*
X008867Y010005D02*
X008867Y009798D01*
X008816Y009798D02*
X009023Y009798D01*
X017001Y006553D02*
X017110Y006661D01*
X017056Y006607D02*
X017381Y006281D01*
X017327Y006227D02*
X017435Y006336D01*
X017490Y006498D02*
X017598Y006498D01*
X017707Y006607D01*
X017707Y006715D01*
X017869Y006770D02*
X017869Y007204D01*
X017815Y007258D01*
X017707Y007258D01*
X017598Y007149D01*
X017598Y007041D01*
X017490Y006932D02*
X017381Y006932D01*
X017273Y006824D01*
X017273Y006715D01*
X017490Y006498D01*
X017869Y006770D02*
X018086Y006987D01*
D18*
X028100Y004388D02*
X028100Y004288D01*
X028125Y004240D02*
X028100Y004215D01*
X028100Y004165D01*
X028125Y004140D01*
X028225Y004140D01*
X028250Y004165D01*
X028250Y004215D01*
X028225Y004240D01*
X028225Y004288D02*
X028250Y004288D01*
X028225Y004288D02*
X028125Y004388D01*
X028100Y004388D01*
M02*
