G75*
%MOIN*%
%OFA0B0*%
%FSLAX24Y24*%
%IPPOS*%
%LPD*%
%AMOC8*
5,1,8,0,0,1.08239X$1,22.5*
%
%ADD10C,0.0000*%
%ADD11R,0.0748X0.0138*%
%ADD12R,0.0900X0.0900*%
%ADD13R,0.0787X0.0906*%
%ADD14R,0.0433X0.0394*%
%ADD15R,0.0748X0.0630*%
%ADD16R,0.0394X0.0433*%
%ADD17R,0.0472X0.0217*%
%ADD18C,0.0197*%
%ADD19R,0.0512X0.0472*%
%ADD20R,0.0787X0.0472*%
%ADD21R,0.0315X0.0315*%
%ADD22R,0.0472X0.0118*%
D10*
X001680Y001485D02*
X001680Y011485D01*
X031180Y011485D01*
X031180Y001485D01*
X001680Y001485D01*
X030280Y005360D02*
X030282Y005384D01*
X030288Y005408D01*
X030297Y005430D01*
X030310Y005450D01*
X030326Y005468D01*
X030345Y005483D01*
X030366Y005496D01*
X030388Y005504D01*
X030412Y005509D01*
X030436Y005510D01*
X030460Y005507D01*
X030483Y005500D01*
X030505Y005490D01*
X030525Y005476D01*
X030542Y005459D01*
X030557Y005440D01*
X030568Y005419D01*
X030576Y005396D01*
X030580Y005372D01*
X030580Y005348D01*
X030576Y005324D01*
X030568Y005301D01*
X030557Y005280D01*
X030542Y005261D01*
X030525Y005244D01*
X030505Y005230D01*
X030483Y005220D01*
X030460Y005213D01*
X030436Y005210D01*
X030412Y005211D01*
X030388Y005216D01*
X030366Y005224D01*
X030345Y005237D01*
X030326Y005252D01*
X030310Y005270D01*
X030297Y005290D01*
X030288Y005312D01*
X030282Y005336D01*
X030280Y005360D01*
X030280Y007610D02*
X030282Y007634D01*
X030288Y007658D01*
X030297Y007680D01*
X030310Y007700D01*
X030326Y007718D01*
X030345Y007733D01*
X030366Y007746D01*
X030388Y007754D01*
X030412Y007759D01*
X030436Y007760D01*
X030460Y007757D01*
X030483Y007750D01*
X030505Y007740D01*
X030525Y007726D01*
X030542Y007709D01*
X030557Y007690D01*
X030568Y007669D01*
X030576Y007646D01*
X030580Y007622D01*
X030580Y007598D01*
X030576Y007574D01*
X030568Y007551D01*
X030557Y007530D01*
X030542Y007511D01*
X030525Y007494D01*
X030505Y007480D01*
X030483Y007470D01*
X030460Y007463D01*
X030436Y007460D01*
X030412Y007461D01*
X030388Y007466D01*
X030366Y007474D01*
X030345Y007487D01*
X030326Y007502D01*
X030310Y007520D01*
X030297Y007540D01*
X030288Y007562D01*
X030282Y007586D01*
X030280Y007610D01*
D11*
X003397Y006997D03*
X003397Y006741D03*
X003397Y006485D03*
X003397Y006229D03*
X003397Y005973D03*
D12*
X002255Y005014D03*
X002255Y007957D03*
D13*
X003239Y007725D03*
X003239Y005245D03*
D14*
X006345Y005860D03*
X007015Y005860D03*
X007015Y006610D03*
X006345Y006610D03*
X007470Y007760D03*
X008140Y007760D03*
X017670Y010423D03*
X018340Y010423D03*
X018345Y009673D03*
X019015Y009673D03*
X022496Y007816D03*
X023165Y007816D03*
X028170Y007610D03*
X028840Y007610D03*
X019965Y002885D03*
X019295Y002885D03*
X018240Y003235D03*
X017570Y003235D03*
D15*
X006330Y007610D03*
X005030Y007610D03*
X006730Y008835D03*
X008030Y008835D03*
X008030Y010035D03*
X006730Y010035D03*
D16*
X015555Y006820D03*
X015555Y006151D03*
X021430Y004995D03*
X021430Y004326D03*
X023080Y003720D03*
X023080Y003051D03*
X028555Y004151D03*
X028555Y004820D03*
D17*
X005617Y008511D03*
X004593Y008511D03*
X004593Y008885D03*
X004593Y009259D03*
X005617Y009259D03*
D18*
X030154Y008398D02*
X030706Y008398D01*
X030706Y008200D01*
X030154Y008200D01*
X030154Y008398D01*
X030154Y008396D02*
X030706Y008396D01*
X030706Y007020D02*
X030154Y007020D01*
X030706Y007020D02*
X030706Y006822D01*
X030154Y006822D01*
X030154Y007020D01*
X030154Y007018D02*
X030706Y007018D01*
X030706Y006148D02*
X030154Y006148D01*
X030706Y006148D02*
X030706Y005950D01*
X030154Y005950D01*
X030154Y006148D01*
X030154Y006146D02*
X030706Y006146D01*
X030706Y004770D02*
X030154Y004770D01*
X030706Y004770D02*
X030706Y004572D01*
X030154Y004572D01*
X030154Y004770D01*
X030154Y004768D02*
X030706Y004768D01*
D19*
X029702Y005360D03*
X029702Y007610D03*
D20*
X022178Y003708D03*
X020682Y003708D03*
X020682Y002763D03*
X022178Y002763D03*
D21*
X017975Y010985D03*
X017385Y010985D03*
D22*
G36*
X018295Y008894D02*
X017962Y009227D01*
X018045Y009310D01*
X018378Y008977D01*
X018295Y008894D01*
G37*
G36*
X018156Y008755D02*
X017823Y009088D01*
X017906Y009171D01*
X018239Y008838D01*
X018156Y008755D01*
G37*
G36*
X018017Y008616D02*
X017684Y008949D01*
X017767Y009032D01*
X018100Y008699D01*
X018017Y008616D01*
G37*
G36*
X017878Y008477D02*
X017545Y008810D01*
X017628Y008893D01*
X017961Y008560D01*
X017878Y008477D01*
G37*
G36*
X017739Y008338D02*
X017406Y008671D01*
X017489Y008754D01*
X017822Y008421D01*
X017739Y008338D01*
G37*
G36*
X017599Y008198D02*
X017266Y008531D01*
X017349Y008614D01*
X017682Y008281D01*
X017599Y008198D01*
G37*
G36*
X017460Y008059D02*
X017127Y008392D01*
X017210Y008475D01*
X017543Y008142D01*
X017460Y008059D01*
G37*
G36*
X017321Y007920D02*
X016988Y008253D01*
X017071Y008336D01*
X017404Y008003D01*
X017321Y007920D01*
G37*
G36*
X017182Y007781D02*
X016849Y008114D01*
X016932Y008197D01*
X017265Y007864D01*
X017182Y007781D01*
G37*
G36*
X017043Y007642D02*
X016710Y007975D01*
X016793Y008058D01*
X017126Y007725D01*
X017043Y007642D01*
G37*
G36*
X016903Y007502D02*
X016570Y007835D01*
X016653Y007918D01*
X016986Y007585D01*
X016903Y007502D01*
G37*
G36*
X016764Y007363D02*
X016431Y007696D01*
X016514Y007779D01*
X016847Y007446D01*
X016764Y007363D01*
G37*
G36*
X016625Y007224D02*
X016292Y007557D01*
X016375Y007640D01*
X016708Y007307D01*
X016625Y007224D01*
G37*
G36*
X016486Y007085D02*
X016153Y007418D01*
X016236Y007501D01*
X016569Y007168D01*
X016486Y007085D01*
G37*
G36*
X016347Y006946D02*
X016014Y007279D01*
X016097Y007362D01*
X016430Y007029D01*
X016347Y006946D01*
G37*
G36*
X016207Y006806D02*
X015874Y007139D01*
X015957Y007222D01*
X016290Y006889D01*
X016207Y006806D01*
G37*
G36*
X016290Y006026D02*
X015957Y005693D01*
X015874Y005776D01*
X016207Y006109D01*
X016290Y006026D01*
G37*
G36*
X016430Y005887D02*
X016097Y005554D01*
X016014Y005637D01*
X016347Y005970D01*
X016430Y005887D01*
G37*
G36*
X016569Y005748D02*
X016236Y005415D01*
X016153Y005498D01*
X016486Y005831D01*
X016569Y005748D01*
G37*
G36*
X016708Y005608D02*
X016375Y005275D01*
X016292Y005358D01*
X016625Y005691D01*
X016708Y005608D01*
G37*
G36*
X016847Y005469D02*
X016514Y005136D01*
X016431Y005219D01*
X016764Y005552D01*
X016847Y005469D01*
G37*
G36*
X016986Y005330D02*
X016653Y004997D01*
X016570Y005080D01*
X016903Y005413D01*
X016986Y005330D01*
G37*
G36*
X017126Y005191D02*
X016793Y004858D01*
X016710Y004941D01*
X017043Y005274D01*
X017126Y005191D01*
G37*
G36*
X017265Y005052D02*
X016932Y004719D01*
X016849Y004802D01*
X017182Y005135D01*
X017265Y005052D01*
G37*
G36*
X017404Y004912D02*
X017071Y004579D01*
X016988Y004662D01*
X017321Y004995D01*
X017404Y004912D01*
G37*
G36*
X017543Y004773D02*
X017210Y004440D01*
X017127Y004523D01*
X017460Y004856D01*
X017543Y004773D01*
G37*
G36*
X017682Y004634D02*
X017349Y004301D01*
X017266Y004384D01*
X017599Y004717D01*
X017682Y004634D01*
G37*
G36*
X017822Y004495D02*
X017489Y004162D01*
X017406Y004245D01*
X017739Y004578D01*
X017822Y004495D01*
G37*
G36*
X017961Y004356D02*
X017628Y004023D01*
X017545Y004106D01*
X017878Y004439D01*
X017961Y004356D01*
G37*
G36*
X018100Y004216D02*
X017767Y003883D01*
X017684Y003966D01*
X018017Y004299D01*
X018100Y004216D01*
G37*
G36*
X018239Y004077D02*
X017906Y003744D01*
X017823Y003827D01*
X018156Y004160D01*
X018239Y004077D01*
G37*
G36*
X018378Y003938D02*
X018045Y003605D01*
X017962Y003688D01*
X018295Y004021D01*
X018378Y003938D01*
G37*
G36*
X019159Y004021D02*
X019492Y003688D01*
X019409Y003605D01*
X019076Y003938D01*
X019159Y004021D01*
G37*
G36*
X019298Y004160D02*
X019631Y003827D01*
X019548Y003744D01*
X019215Y004077D01*
X019298Y004160D01*
G37*
G36*
X019437Y004299D02*
X019770Y003966D01*
X019687Y003883D01*
X019354Y004216D01*
X019437Y004299D01*
G37*
G36*
X019577Y004439D02*
X019910Y004106D01*
X019827Y004023D01*
X019494Y004356D01*
X019577Y004439D01*
G37*
G36*
X019716Y004578D02*
X020049Y004245D01*
X019966Y004162D01*
X019633Y004495D01*
X019716Y004578D01*
G37*
G36*
X019855Y004717D02*
X020188Y004384D01*
X020105Y004301D01*
X019772Y004634D01*
X019855Y004717D01*
G37*
G36*
X019994Y004856D02*
X020327Y004523D01*
X020244Y004440D01*
X019911Y004773D01*
X019994Y004856D01*
G37*
G36*
X020133Y004995D02*
X020466Y004662D01*
X020383Y004579D01*
X020050Y004912D01*
X020133Y004995D01*
G37*
G36*
X020272Y005135D02*
X020605Y004802D01*
X020522Y004719D01*
X020189Y005052D01*
X020272Y005135D01*
G37*
G36*
X020412Y005274D02*
X020745Y004941D01*
X020662Y004858D01*
X020329Y005191D01*
X020412Y005274D01*
G37*
G36*
X020551Y005413D02*
X020884Y005080D01*
X020801Y004997D01*
X020468Y005330D01*
X020551Y005413D01*
G37*
G36*
X020690Y005552D02*
X021023Y005219D01*
X020940Y005136D01*
X020607Y005469D01*
X020690Y005552D01*
G37*
G36*
X020829Y005691D02*
X021162Y005358D01*
X021079Y005275D01*
X020746Y005608D01*
X020829Y005691D01*
G37*
G36*
X020968Y005831D02*
X021301Y005498D01*
X021218Y005415D01*
X020885Y005748D01*
X020968Y005831D01*
G37*
G36*
X021108Y005970D02*
X021441Y005637D01*
X021358Y005554D01*
X021025Y005887D01*
X021108Y005970D01*
G37*
G36*
X021247Y006109D02*
X021580Y005776D01*
X021497Y005693D01*
X021164Y006026D01*
X021247Y006109D01*
G37*
G36*
X021164Y006889D02*
X021497Y007222D01*
X021580Y007139D01*
X021247Y006806D01*
X021164Y006889D01*
G37*
G36*
X021025Y007029D02*
X021358Y007362D01*
X021441Y007279D01*
X021108Y006946D01*
X021025Y007029D01*
G37*
G36*
X020885Y007168D02*
X021218Y007501D01*
X021301Y007418D01*
X020968Y007085D01*
X020885Y007168D01*
G37*
G36*
X020746Y007307D02*
X021079Y007640D01*
X021162Y007557D01*
X020829Y007224D01*
X020746Y007307D01*
G37*
G36*
X020607Y007446D02*
X020940Y007779D01*
X021023Y007696D01*
X020690Y007363D01*
X020607Y007446D01*
G37*
G36*
X020468Y007585D02*
X020801Y007918D01*
X020884Y007835D01*
X020551Y007502D01*
X020468Y007585D01*
G37*
G36*
X020329Y007725D02*
X020662Y008058D01*
X020745Y007975D01*
X020412Y007642D01*
X020329Y007725D01*
G37*
G36*
X020189Y007864D02*
X020522Y008197D01*
X020605Y008114D01*
X020272Y007781D01*
X020189Y007864D01*
G37*
G36*
X020050Y008003D02*
X020383Y008336D01*
X020466Y008253D01*
X020133Y007920D01*
X020050Y008003D01*
G37*
G36*
X019911Y008142D02*
X020244Y008475D01*
X020327Y008392D01*
X019994Y008059D01*
X019911Y008142D01*
G37*
G36*
X019772Y008281D02*
X020105Y008614D01*
X020188Y008531D01*
X019855Y008198D01*
X019772Y008281D01*
G37*
G36*
X019633Y008421D02*
X019966Y008754D01*
X020049Y008671D01*
X019716Y008338D01*
X019633Y008421D01*
G37*
G36*
X019494Y008560D02*
X019827Y008893D01*
X019910Y008810D01*
X019577Y008477D01*
X019494Y008560D01*
G37*
G36*
X019354Y008699D02*
X019687Y009032D01*
X019770Y008949D01*
X019437Y008616D01*
X019354Y008699D01*
G37*
G36*
X019215Y008838D02*
X019548Y009171D01*
X019631Y009088D01*
X019298Y008755D01*
X019215Y008838D01*
G37*
G36*
X019076Y008977D02*
X019409Y009310D01*
X019492Y009227D01*
X019159Y008894D01*
X019076Y008977D01*
G37*
M02*
